<?xml version="1.0" encoding="utf-8"?>
<!-- Generator: Adobe Illustrator 21.1.0, SVG Export Plug-In . SVG Version: 6.00 Build 0)  -->
<svg version="1.1" id="Capa_1" xmlns="http://www.w3.org/2000/svg" xmlns:xlink="http://www.w3.org/1999/xlink" x="0px" y="0px"
	 viewBox="0 0 1024 691.4" style="enable-background:new 0 0 1024 691.4;" xml:space="preserve">
<style type="text/css">
	.st0{fill:#C2D668;}
	.st1{fill:#B75E2F;}
</style>
<g>
	<path class="st0" d="M540.5,242.3H181.6l-3.6-3.8V73h367.5v165L540.5,242.3z M182,241.3h358.1l4.3-3.8V74H179v164.1L182,241.3z"/>
</g>
<g>
	<path class="st0" d="M812.3,241.7H575.6l-3.8-4.3V73h243.4v166.1L812.3,241.7z M576.1,240.7h235.8l2.4-2V74H572.8v162.9
		L576.1,240.7z"/>
</g>
<g>
	<g>
		<rect x="836.2" y="97.1" class="st0" width="12.3" height="68.1"/>
	</g>
	<g>
		<path class="st0" d="M848.5,95h-12.3v-0.3c0-3.4,2.8-6.1,6.1-6.1h0c3.4,0,6.1,2.8,6.1,6.1V95z"/>
	</g>
	<g>
		<path class="st0" d="M836.2,238.8h12.3v0.3c0,3.4-2.8,6.1-6.1,6.1h0c-3.4,0-6.1-2.8-6.1-6.1V238.8z"/>
	</g>
	<g>
		<rect x="836.2" y="167.5" class="st0" width="12.3" height="68.1"/>
	</g>
</g>
<g>
	<g>
		
			<rect x="630.7" y="213" transform="matrix(6.123234e-17 -1 1 6.123234e-17 366.3502 907.3043)" class="st0" width="12.3" height="115"/>
	</g>
	<g>
		<path class="st0" d="M577.2,264.3v12.3h-0.3c-3.4,0-6.1-2.8-6.1-6.1v0c0-3.4,2.8-6.1,6.1-6.1H577.2z"/>
	</g>
	<g>
		<path class="st0" d="M810.7,276.6v-12.3h0.3c3.4,0,6.1,2.8,6.1,6.1v0c0,3.4-2.8,6.1-6.1,6.1H810.7z"/>
	</g>
	<g>
		
			<rect x="746.2" y="215.4" transform="matrix(6.123234e-17 -1 1 6.123234e-17 481.8788 1022.8329)" class="st0" width="12.3" height="110.2"/>
	</g>
</g>
<g>
	<g>
		<rect x="556.8" y="91.6" class="st1" width="3.8" height="145.9"/>
	</g>
	<g>
		<path class="st1" d="M560.6,90.1h-3.8v-0.2c0-1,0.8-1.8,1.8-1.8h0.3c1,0,1.8,0.8,1.8,1.8V90.1z"/>
	</g>
	<g>
		<path class="st1" d="M556.8,238.7h3.8v0.1c0,0.9-0.7,1.7-1.7,1.7h-0.5c-0.9,0-1.7-0.7-1.7-1.7V238.7z"/>
	</g>
</g>
<g>
	<g>
		<rect x="456.8" y="303.6" class="st1" width="1" height="66.1"/>
	</g>
	<g>
		<path class="st1" d="M457.7,302.1h-1v-0.2c0-0.3,0.2-0.5,0.5-0.5l0,0c0.3,0,0.5,0.2,0.5,0.5V302.1z"/>
	</g>
	<g>
		<path class="st1" d="M456.8,371.3h1v0.2c0,0.3-0.2,0.5-0.5,0.5l0,0c-0.3,0-0.5-0.2-0.5-0.5V371.3z"/>
	</g>
</g>
<g>
	<g>
		<rect x="456.8" y="431.7" class="st1" width="1" height="74.3"/>
	</g>
	<g>
		<path class="st1" d="M457.7,430.1h-1V430c0-0.3,0.2-0.5,0.5-0.5l0,0c0.3,0,0.5,0.2,0.5,0.5V430.1z"/>
	</g>
	<g>
		<path class="st1" d="M456.8,507.6h1v0.2c0,0.3-0.2,0.5-0.5,0.5l0,0c-0.3,0-0.5-0.2-0.5-0.5V507.6z"/>
	</g>
</g>
<g>
	<g>
		<rect x="456.8" y="545.1" class="st1" width="1" height="19.2"/>
	</g>
	<g>
		<path class="st1" d="M457.7,543.5h-1v-0.2c0-0.3,0.2-0.5,0.5-0.5l0,0c0.3,0,0.5,0.2,0.5,0.5V543.5z"/>
	</g>
	<g>
		<path class="st1" d="M456.8,565.7h1v0.2c0,0.3-0.2,0.5-0.5,0.5l0,0c-0.3,0-0.5-0.2-0.5-0.5V565.7z"/>
	</g>
</g>
<g>
	<g>
		<path class="st1" d="M848.4,564.3h-1v-20.9c0-0.3,0.2-0.5,0.5-0.5l0,0c0.3,0,0.5,0.2,0.5,0.5V564.3z"/>
	</g>
	<g>
		<path class="st1" d="M847.4,565.7h1v0.2c0,0.3-0.2,0.5-0.5,0.5l0,0c-0.3,0-0.5-0.2-0.5-0.5V565.7z"/>
	</g>
</g>
<g>
	<g>
		<path class="st1" d="M847.4,303.7h1v67.8c0,0.3-0.2,0.5-0.5,0.5l0,0c-0.3,0-0.5-0.2-0.5-0.5V303.7z"/>
	</g>
	<g>
		<path class="st1" d="M848.3,302h-1v-0.2c0-0.3,0.2-0.5,0.5-0.5l0,0c0.3,0,0.5,0.2,0.5,0.5V302z"/>
	</g>
</g>
<g>
	<g>
		<path class="st1" d="M165.2,240.1L165.2,240.1c-1.1,0-1.9-0.9-1.9-1.9V89.4c0-1.1,0.9-1.9,1.9-1.9h0c1.1,0,1.9,0.9,1.9,1.9v148.8
			C167.1,239.3,166.3,240.1,165.2,240.1z"/>
	</g>
</g>
<g>
	<g>
		
			<rect x="701.5" y="360.7" transform="matrix(6.123234e-17 -1 1 6.123234e-17 304.7754 1106.2009)" class="st0" width="8" height="79.9"/>
	</g>
	<g>
		<path class="st0" d="M662.4,396.7v8h-0.2c-2.2,0-4-1.8-4-4l0,0c0-2.2,1.8-4,4-4H662.4z"/>
	</g>
	<g>
		<path class="st0" d="M831.4,404.7v-8h0.2c2.2,0,4,1.8,4,4l0,0c0,2.2-1.8,4-4,4H831.4z"/>
	</g>
	<g>
		
			<rect x="784.3" y="360.7" transform="matrix(6.123234e-17 -1 1 6.123234e-17 387.6326 1189.0581)" class="st0" width="8" height="80.1"/>
	</g>
</g>
<g>
	<g>
		
			<rect x="511.7" y="361.9" transform="matrix(6.123234e-17 -1 1 6.123234e-17 114.9815 916.4071)" class="st0" width="8" height="77.5"/>
	</g>
	<g>
		<path class="st0" d="M473.9,396.7v8h-0.2c-2.2,0-4-1.8-4-4l0,0c0-2.2,1.8-4,4-4H473.9z"/>
	</g>
	<g>
		<path class="st0" d="M638.9,404.7v-8h0.2c2.2,0,4,1.8,4,4l0,0c0,2.2-1.8,4-4,4H638.9z"/>
	</g>
	<g>
		
			<rect x="592.8" y="361.6" transform="matrix(6.123234e-17 -1 1 6.123234e-17 196.1336 997.5592)" class="st0" width="8" height="78.2"/>
	</g>
</g>
<g>
	<g>
		
			<rect x="244.1" y="338.8" transform="matrix(6.123234e-17 -1 1 6.123234e-17 -152.5533 648.8723)" class="st0" width="8" height="123.7"/>
	</g>
	<g>
		<path class="st0" d="M183.3,396.7v8h-0.2c-2.2,0-4-1.8-4-4l0,0c0-2.2,1.8-4,4-4H183.3z"/>
	</g>
	<g>
		<path class="st0" d="M440.7,404.7v-8h0.2c2.2,0,4,1.8,4,4l0,0c0,2.2-1.8,4-4,4H440.7z"/>
	</g>
	<g>
		
			<rect x="371.6" y="338.6" transform="matrix(6.123234e-17 -1 1 6.123234e-17 -25.1216 776.304)" class="st0" width="8" height="124.2"/>
	</g>
</g>
<g>
	<g>
		
			<rect x="86.1" y="386.3" transform="matrix(6.123234e-17 -1 1 6.123234e-17 -310.6206 490.805)" class="st0" width="8" height="28.8"/>
	</g>
	<g>
		<path class="st0" d="M72.7,396.7v8h-0.2c-2.2,0-4-1.8-4-4l0,0c0-2.2,1.8-4,4-4H72.7z"/>
	</g>
	<g>
		<path class="st0" d="M147.2,404.7v-8h0.2c2.2,0,4,1.8,4,4l0,0c0,2.2-1.8,4-4,4H147.2z"/>
	</g>
	<g>
		
			<rect x="121.9" y="382.4" transform="matrix(6.123234e-17 -1 1 6.123234e-17 -274.7559 526.6697)" class="st0" width="8" height="36.6"/>
	</g>
</g>
<g>
	<g>
		
			<rect x="241.5" y="208" transform="matrix(6.123234e-17 -1 1 6.123234e-17 -22.7989 518.1552)" class="st0" width="12.3" height="124.9"/>
	</g>
	<g>
		<path class="st0" d="M183.1,264.3v12.3h-0.3c-3.4,0-6.1-2.8-6.1-6.1v0c0-3.4,2.8-6.1,6.1-6.1H183.1z"/>
	</g>
	<g>
		<path class="st0" d="M440.9,276.6v-12.3h0.3c3.4,0,6.1,2.8,6.1,6.1v0c0,3.4-2.8,6.1-6.1,6.1H440.9z"/>
	</g>
	<g>
		
			<rect x="369.4" y="208.3" transform="matrix(6.123234e-17 -1 1 6.123234e-17 105.0315 645.9856)" class="st0" width="12.3" height="124.5"/>
	</g>
</g>
<g>
	<g>
		
			<rect x="500.6" y="239.7" transform="matrix(6.123234e-17 -1 1 6.123234e-17 236.2639 777.218)" class="st0" width="12.3" height="61.5"/>
	</g>
	<g>
		<path class="st0" d="M473.9,264.3v12.3h-0.3c-3.4,0-6.1-2.8-6.1-6.1v0c0-3.4,2.8-6.1,6.1-6.1H473.9z"/>
	</g>
	<g>
		<path class="st0" d="M540.6,276.6v-12.3h0.3c3.4,0,6.1,2.8,6.1,6.1v0c0,3.4-2.8,6.1-6.1,6.1H540.6z"/>
	</g>
</g>
<g>
	<circle class="st0" cx="842.5" cy="270.2" r="10.4"/>
</g>
<g>
	<path class="st0" d="M842.5,283.1c-7.1,0-12.9-5.8-12.9-12.9c0-7.1,5.8-12.9,12.9-12.9c7.1,0,12.9,5.8,12.9,12.9
		C855.4,277.3,849.6,283.1,842.5,283.1z M842.5,257.8c-6.8,0-12.4,5.6-12.4,12.4c0,6.8,5.6,12.4,12.4,12.4s12.4-5.6,12.4-12.4
		C854.9,263.3,849.3,257.8,842.5,257.8z"/>
</g>
<g>
	<g>
		<g>
			<path class="st1" d="M167.1,369.7h-3.8v-67.9c0-1.1,0.9-1.9,1.9-1.9l0,0c1.1,0,1.9,0.9,1.9,1.9V369.7z"/>
		</g>
	</g>
	<g>
		<path class="st1" d="M165.2,373.3L165.2,373.3c-1.1,0-1.9-0.9-1.9-1.9v-0.1h3.8v0.1C167.1,372.4,166.2,373.3,165.2,373.3z"/>
	</g>
</g>
<g>
	<g>
		<g>
			<path class="st1" d="M145.6,523.6v3.8H71.8c-1.1,0-1.9-0.9-1.9-1.9v0c0-1.1,0.9-1.9,1.9-1.9H145.6z"/>
		</g>
	</g>
	<g>
		<path class="st1" d="M149.2,525.5L149.2,525.5c0,1.1-0.9,1.9-1.9,1.9h-0.1v-3.8h0.1C148.4,523.6,149.2,524.4,149.2,525.5z"/>
	</g>
</g>
<g>
	<g>
		<g>
			<rect x="163.2" y="431.7" class="st1" width="3.8" height="74.5"/>
		</g>
	</g>
	<g>
		<path class="st1" d="M165.1,509.6L165.1,509.6c-1.1,0-1.9-0.9-1.9-1.9v-0.1h3.8v0.1C167,508.7,166.2,509.6,165.1,509.6z"/>
	</g>
	<g>
		<path class="st1" d="M165.1,428.1L165.1,428.1c1.1,0,1.9,0.9,1.9,1.9v0.1h-3.8V430C163.2,429,164.1,428.1,165.1,428.1z"/>
	</g>
</g>
<g>
	<g>
		<g>
			<rect x="163.2" y="545.1" class="st1" width="3.8" height="19.1"/>
		</g>
	</g>
	<g>
		<path class="st1" d="M165.1,541.6L165.1,541.6c1.1,0,1.9,0.9,1.9,1.9v0.1h-3.8v-0.1C163.2,542.4,164.1,541.6,165.1,541.6z"/>
	</g>
	<g>
		<path class="st1" d="M165.1,567.8L165.1,567.8c-1.1,0-1.9-0.9-1.9-1.9v-0.1h3.8v0.1C167,566.9,166.2,567.8,165.1,567.8z"/>
	</g>
</g>
<g>
	<g>
		<g>
			
				<rect x="310" y="398.4" transform="matrix(1.488446e-09 -1 1 1.488446e-09 -213.6976 837.4744)" class="st1" width="3.8" height="254.4"/>
		</g>
	</g>
	<g>
		<path class="st1" d="M181.1,525.6L181.1,525.6c0-1.1,0.9-1.9,1.9-1.9h0.1v3.8H183C182,527.5,181.1,526.6,181.1,525.6z"/>
	</g>
	<g>
		<path class="st1" d="M442.7,525.6L442.7,525.6c0,1.1-0.9,1.9-1.9,1.9h-0.1v-3.8h0.1C441.8,523.7,442.7,524.5,442.7,525.6z"/>
	</g>
</g>
<g>
	<g>
		<g>
			
				<rect x="554.3" y="444.9" transform="matrix(9.441249e-10 -1 1 9.441249e-10 30.585 1081.757)" class="st1" width="3.8" height="161.4"/>
		</g>
	</g>
	<g>
		<path class="st1" d="M471.9,525.6L471.9,525.6c0-1.1,0.9-1.9,1.9-1.9h0.1v3.8h-0.1C472.8,527.5,471.9,526.6,471.9,525.6z"/>
	</g>
	<g>
		<path class="st1" d="M640.5,525.6L640.5,525.6c0,1.1-0.9,1.9-1.9,1.9h-0.1v-3.8h0.1C639.6,523.7,640.5,524.5,640.5,525.6z"/>
	</g>
</g>
<g>
	<g>
		<g>
			
				<rect x="745" y="442.6" transform="matrix(9.712214e-10 -1 1 9.712214e-10 221.3186 1272.4905)" class="st1" width="3.8" height="166"/>
		</g>
	</g>
	<g>
		<path class="st1" d="M660.6,525.6L660.6,525.6c0-1.1,0.9-1.9,1.9-1.9h0.1v3.8h-0.1C661.5,527.5,660.6,526.6,660.6,525.6z"/>
	</g>
	<g>
		<path class="st1" d="M833.4,525.6L833.4,525.6c0,1.1-0.9,1.9-1.9,1.9h-0.1v-3.8h0.1C832.6,523.7,833.4,524.5,833.4,525.6z"/>
	</g>
</g>
<g>
	<g>
		<g>
			<path class="st1" d="M930.8,584.4L930.8,584.4c0,1.4-1.1,2.5-2.5,2.5h-62v-5h62C929.6,581.8,930.8,583,930.8,584.4z"/>
		</g>
	</g>
	<g>
		<path class="st1" d="M862.4,584.9v-1.1c0-1.1,0.9-2,2-2l0,0v5l0,0C863.2,586.9,862.4,586,862.4,584.9z"/>
	</g>
</g>
<g>
	<g>
		<g>
			
				<rect x="744.2" y="501.3" transform="matrix(7.320411e-10 -1 1 7.320411e-10 162.428 1330.9929)" class="st0" width="5.1" height="165.9"/>
		</g>
	</g>
	<g>
		<path class="st0" d="M659.8,584.3L659.8,584.3c0-1.4,1.1-2.5,2.5-2.5h0v5.1h0C661,586.8,659.8,585.7,659.8,584.3z"/>
	</g>
	<g>
		<path class="st0" d="M833.9,584.3L833.9,584.3c0,1.4-1.1,2.5-2.5,2.5h0v-5.1h0C832.8,581.7,833.9,582.9,833.9,584.3z"/>
	</g>
</g>
<g>
	<g>
		<g>
			
				<rect x="554.2" y="504" transform="matrix(7.091199e-10 -1 1 7.091199e-10 -27.5428 1141.0222)" class="st0" width="5.1" height="160.6"/>
		</g>
	</g>
	<g>
		<path class="st0" d="M471.2,584.3L471.2,584.3c0-1.4,1.1-2.5,2.5-2.5h0v5.1h0C472.3,586.8,471.2,585.7,471.2,584.3z"/>
	</g>
	<g>
		<path class="st0" d="M641.3,584.3L641.3,584.3c0,1.4-1.1,2.5-2.5,2.5h0v-5.1h0C640.2,581.7,641.3,582.9,641.3,584.3z"/>
	</g>
</g>
<g>
	<g>
		<g>
			
				<rect x="309.9" y="457.4" transform="matrix(1.119908e-09 -1 1 1.119908e-09 -271.8866 896.6784)" class="st0" width="5.1" height="253.7"/>
		</g>
	</g>
	<g>
		<path class="st0" d="M443.5,584.3L443.5,584.3c0,1.4-1.1,2.5-2.5,2.5h0v-5.1h0C442.4,581.7,443.5,582.9,443.5,584.3z"/>
	</g>
	<g>
		<path class="st0" d="M180.4,584.3L180.4,584.3c0-1.4,1.1-2.5,2.5-2.5h0v5.1h0C181.6,586.8,180.4,585.7,180.4,584.3z"/>
	</g>
</g>
<g>
	<path class="st1" d="M847.9,508.3L847.9,508.3c-0.3,0-0.6-0.3-0.6-0.6v-77.7c0-0.3,0.3-0.6,0.6-0.6l0,0c0.3,0,0.6,0.3,0.6,0.6v77.7
		C848.5,508,848.2,508.3,847.9,508.3z"/>
</g>
<g>
	<path class="st0" d="M148.4,570.5H58.4v-32h90.1l3.4,3.2v25.7L148.4,570.5z M59.4,569.5h88.7l2.8-2.5v-24.9l-2.8-2.6H59.4V569.5z"
		/>
</g>
<g>
	<path d="M69.8,547.7v1.3h-3.3v1.2h3v1.3l-3,0v1.2h3.4v1.3h-5.1v-6.3H69.8z"/>
	<path d="M77.7,554.8c-0.5,0.4-1.2,0.7-1.8,0.7c-0.9,0-1.6-0.5-2-1.4c-1.9-0.1-3.3-1.4-3.3-3.2c0-1.8,1.5-3.2,3.4-3.2
		s3.4,1.4,3.4,3.2c0,1.4-0.8,2.5-2.1,3c0.2,0.3,0.5,0.4,0.7,0.4c0.3,0,0.7-0.2,1.1-0.5L77.7,554.8z M73.9,552.7
		c0.9,0,1.7-0.8,1.7-1.8s-0.8-1.8-1.7-1.8s-1.7,0.8-1.7,1.8S73,552.7,73.9,552.7z"/>
	<path d="M81,552.7c0.7,0,1.2-0.5,1.2-1.3v-3.7h1.6v3.7c0,1.7-1.1,2.7-2.9,2.7c-1.8,0-2.9-1.1-2.9-2.7v-3.7h1.6v3.7
		C79.7,552.2,80.3,552.7,81,552.7z"/>
	<path d="M86.7,547.7v6.3H85v-6.3H86.7z"/>
	<path d="M93.2,549.9c0,1.5-0.9,2.4-2.5,2.4h-1.1v1.7h-1.6v-6.3h2.8C92.3,547.7,93.2,548.5,93.2,549.9z M91.6,550c0-0.6-0.4-1-1.1-1
		h-1v1.9h1C91.2,550.9,91.6,550.6,91.6,550z"/>
	<path d="M97.7,552.9H95l-0.4,1.1h-1.7l2.7-6.3h1.7l2.6,6.3h-1.8L97.7,552.9z M97.2,551.6l-0.9-2.3l-0.9,2.3H97.2z"/>
	<path d="M102.3,547.7l1.7,3.7l1.7-3.7h1.8v6.3H106l0-4l-1.5,3.4h-1.1L102,550v4h-1.5v-6.3H102.3z"/>
	<path d="M113.6,547.7v1.3h-3.3v1.2h3v1.3l-3,0v1.2h3.4v1.3h-5.1v-6.3H113.6z"/>
	<path d="M116.2,547.7l2.9,3.8v-3.8h1.5v6.3h-1.4l-2.9-3.8v3.8h-1.5v-6.3H116.2z"/>
	<path d="M126.7,547.7v1.4h-1.9v5h-1.6v-5h-1.9v-1.4H126.7z"/>
	<path d="M133.4,550.8c0,1.8-1.5,3.2-3.4,3.2s-3.4-1.4-3.4-3.2c0-1.8,1.5-3.2,3.4-3.2S133.4,549,133.4,550.8z M128.3,550.9
		c0,1,0.8,1.8,1.7,1.8c0.9,0,1.7-0.8,1.7-1.8s-0.8-1.8-1.7-1.8S128.3,549.8,128.3,550.9z"/>
	<path d="M67.7,561.7c0.7,0,1.2-0.5,1.2-1.3v-3.7h1.6v3.7c0,1.7-1.1,2.7-2.9,2.7c-1.8,0-2.9-1.1-2.9-2.7v-3.7h1.6v3.7
		C66.4,561.2,66.9,561.7,67.7,561.7z"/>
	<path d="M75.5,563l-0.9-1.7h0h-1.2v1.7h-1.6v-6.3h2.8c1.7,0,2.6,0.8,2.6,2.2c0,1-0.4,1.7-1.1,2l1.3,2.1H75.5z M73.3,559.9h1.2
		c0.7,0,1.1-0.3,1.1-1c0-0.6-0.4-1-1.1-1h-1.2V559.9z"/>
	<path d="M83.5,558.3c0,0.7-0.4,1.2-1.1,1.4c0.8,0.2,1.3,0.8,1.3,1.6c0,1.1-0.9,1.8-2.4,1.8h-3.1v-6.3h3
		C82.6,556.7,83.5,557.3,83.5,558.3z M81.8,558.6c0-0.4-0.3-0.6-0.7-0.6h-1.3v1.2h1.3C81.6,559.2,81.8,559,81.8,558.6z M82,561
		c0-0.4-0.4-0.6-0.9-0.6h-1.3v1.3h1.3C81.7,561.7,82,561.5,82,561z"/>
	<path d="M88.8,561.9h-2.7l-0.4,1.1H84l2.7-6.3h1.7L91,563h-1.8L88.8,561.9z M88.3,560.6l-0.9-2.3l-0.9,2.3H88.3z"/>
	<path d="M93,556.7l2.9,3.8v-3.8h1.5v6.3H96l-2.9-3.8v3.8h-1.5v-6.3H93z"/>
	<path d="M105.1,559.8c0,1.8-1.5,3.2-3.4,3.2s-3.4-1.4-3.4-3.2c0-1.8,1.5-3.2,3.4-3.2S105.1,558,105.1,559.8z M99.9,559.9
		c0,1,0.8,1.8,1.7,1.8c0.9,0,1.7-0.8,1.7-1.8s-0.8-1.8-1.7-1.8S99.9,558.8,99.9,559.9z"/>
</g>
<g>
	<path class="st0" d="M148.5,512.5H57.8V468h93.8v41.4L148.5,512.5z M58.8,511.5h89.3l2.5-2.5v-40H58.8V511.5z"/>
</g>
<g>
	<path d="M76.6,486.5h-2.7l-0.4,1.1h-1.7l2.7-6.3h1.7l2.6,6.3H77L76.6,486.5z M76.1,485.2l-0.9-2.3l-0.9,2.3H76.1z M75.6,480.8h-1.2
		l1-1.5l1.4,0.5L75.6,480.8z"/>
	<path d="M83.1,487.6l-0.9-1.7h0H81v1.7h-1.6v-6.3h2.8c1.7,0,2.6,0.8,2.6,2.2c0,1-0.4,1.7-1.1,2l1.3,2.1H83.1z M81,484.5h1.2
		c0.7,0,1.1-0.3,1.1-1c0-0.6-0.4-1-1.1-1H81V484.5z"/>
	<path d="M90.8,481.3v1.3h-3.3v1.2h3v1.3l-3,0v1.2h3.4v1.3h-5.1v-6.3H90.8z"/>
	<path d="M96.1,486.5h-2.7l-0.4,1.1h-1.7l2.7-6.3h1.7l2.6,6.3h-1.8L96.1,486.5z M95.6,485.2l-0.9-2.3l-0.9,2.3H95.6z"/>
	<path d="M76.1,496.6l-0.9-1.7h0H74v1.7h-1.6v-6.3h2.8c1.7,0,2.6,0.8,2.6,2.2c0,1-0.4,1.7-1.1,2l1.3,2.1H76.1z M74,493.5h1.2
		c0.7,0,1.1-0.3,1.1-1c0-0.6-0.4-1-1.1-1H74V493.5z"/>
	<path d="M83.8,490.3v1.3h-3.3v1.2h3v1.3l-3,0v1.2h3.4v1.3h-5.1v-6.3H83.8z"/>
	<path d="M87.9,491.6c-1,0-1.7,0.8-1.7,1.8c0,1,0.7,1.8,1.7,1.8c0.5,0,1.1-0.3,1.6-0.7l1,1c-0.7,0.7-1.7,1.2-2.6,1.2
		c-1.9,0-3.3-1.4-3.3-3.2c0-1.8,1.4-3.2,3.4-3.2c0.9,0,1.9,0.4,2.5,1.1l-1,1.1C89.1,492,88.5,491.6,87.9,491.6z"/>
	<path d="M95,496.6l-0.9-1.7h0h-1.2v1.7h-1.6v-6.3H94c1.7,0,2.6,0.8,2.6,2.2c0,1-0.4,1.7-1.1,2l1.3,2.1H95z M92.8,493.5H94
		c0.7,0,1.1-0.3,1.1-1c0-0.6-0.4-1-1.1-1h-1.2V493.5z"/>
	<path d="M102.7,490.3v1.3h-3.3v1.2h3v1.3l-3,0v1.2h3.4v1.3h-5.1v-6.3H102.7z"/>
	<path d="M108,495.5h-2.7l-0.4,1.1h-1.7l2.7-6.3h1.7l2.6,6.3h-1.8L108,495.5z M107.5,494.2l-0.9-2.3l-0.9,2.3H107.5z"/>
	<path d="M114.9,490.3v1.4H113v5h-1.6v-5h-1.9v-1.4H114.9z"/>
	<path d="M117.2,490.3v6.3h-1.6v-6.3H117.2z"/>
	<path d="M119.6,490.3l1.6,4.6l1.6-4.6h1.7l-2.5,6.3h-1.7l-2.4-6.3H119.6z"/>
	<path d="M128.7,495.5H126l-0.4,1.1h-1.7l2.7-6.3h1.7l2.6,6.3h-1.8L128.7,495.5z M128.2,494.2l-0.9-2.3l-0.9,2.3H128.2z"/>
</g>
<g>
	<path d="M97.7,434.8v6.3H96v-6.3H97.7z"/>
	<path d="M101.2,437.8v1h-2.4v-1H101.2z"/>
	<path d="M106.8,439.1c0,1.2-1,2.1-2.6,2.1c-0.9,0-1.9-0.3-2.5-0.8l0.7-1.3c0.5,0.5,1.1,0.8,1.7,0.8c0.7,0,1.1-0.3,1.1-0.8
		c0-0.5-0.4-0.8-1.1-0.8H103v-0.9l1.5-1.4h-2.4l0-1.3h4.4v1l-1.7,1.6l0.3,0C106.1,437.5,106.8,438.1,106.8,439.1z"/>
	<path d="M70.6,443.8v1.1l-3.3,3.9h3.4v1.3h-5.6V449l3.3-3.9h-3.2v-1.3H70.6z"/>
	<path d="M78,446.9c0,1.8-1.5,3.2-3.4,3.2s-3.4-1.4-3.4-3.2c0-1.8,1.5-3.2,3.4-3.2S78,445.1,78,446.9z M72.8,446.9
		c0,1,0.8,1.8,1.7,1.8c0.9,0,1.7-0.8,1.7-1.8s-0.8-1.8-1.7-1.8S72.8,445.9,72.8,446.9z"/>
	<path d="M80.2,443.8l2.9,3.8v-3.8h1.5v6.3h-1.4l-2.9-3.8v3.8h-1.5v-6.3H80.2z"/>
	<path d="M90.1,449h-2.7l-0.4,1.1h-1.7l2.7-6.3h1.7l2.6,6.3h-1.8L90.1,449z M89.6,447.7l-0.9-2.3l-0.9,2.3H89.6z"/>
	<path d="M101.6,446.9c0,1.9-1.4,3.2-3.4,3.2h-2.7v-6.3h2.7C100.2,443.8,101.6,445.1,101.6,446.9z M99.9,446.9
		c0-1.1-0.7-1.8-1.7-1.8h-1v3.6h1.1C99.2,448.8,99.9,448,99.9,446.9z"/>
	<path d="M107.4,443.8v1.3H104v1.2h3v1.3l-3,0v1.2h3.4v1.3h-5.1v-6.3H107.4z"/>
	<path d="M115.3,446.9h1.4v2.5c-0.7,0.5-1.7,0.8-2.6,0.8c-1.9,0-3.4-1.4-3.4-3.2c0-1.8,1.5-3.2,3.5-3.2c0.9,0,1.9,0.4,2.6,0.9
		l-0.9,1.2c-0.5-0.4-1.1-0.7-1.7-0.7c-1,0-1.8,0.8-1.8,1.8c0,1,0.8,1.8,1.8,1.8c0.3,0,0.7-0.1,1.1-0.3V446.9z"/>
	<path d="M121.6,450.1l-0.9-1.7h0h-1.2v1.7h-1.6v-6.3h2.8c1.7,0,2.6,0.8,2.6,2.2c0,1-0.4,1.7-1.1,2l1.3,2.1H121.6z M119.5,447h1.2
		c0.7,0,1.1-0.3,1.1-1c0-0.6-0.4-1-1.1-1h-1.2V447z"/>
	<path d="M128.6,449h-2.7l-0.4,1.1h-1.7l2.7-6.3h1.7l2.6,6.3H129L128.6,449z M128.1,447.7l-0.9-2.3l-0.9,2.3H128.1z"/>
	<path d="M132.8,443.8l2.9,3.8v-3.8h1.5v6.3h-1.4l-2.9-3.8v3.8h-1.5v-6.3H132.8z"/>
	<path d="M77.9,452.8v6.3h-1.6v-6.3H77.9z"/>
	<path d="M80.6,452.8l2.9,3.8v-3.8H85v6.3h-1.4l-2.9-3.8v3.8h-1.5v-6.3H80.6z"/>
	<path d="M92.3,455.9c0,1.9-1.4,3.2-3.4,3.2h-2.7v-6.3h2.7C90.9,452.8,92.3,454.1,92.3,455.9z M90.6,455.9c0-1.1-0.7-1.8-1.7-1.8h-1
		v3.6H89C89.9,457.8,90.6,457,90.6,455.9z"/>
	<path d="M95.9,457.8c0.7,0,1.2-0.5,1.2-1.3v-3.7h1.6v3.7c0,1.7-1.1,2.7-2.9,2.7c-1.8,0-2.9-1.1-2.9-2.7v-3.7h1.6v3.7
		C94.6,457.3,95.2,457.8,95.9,457.8z"/>
	<path d="M102.2,454c-0.4,0-0.7,0.1-0.7,0.4c0,1,3.3,0.5,3.3,2.7c0,1.3-1.1,1.9-2.5,1.9c-1.1,0-2.2-0.4-2.9-1l0.6-1.3
		c0.6,0.6,1.6,1,2.3,1c0.5,0,0.8-0.2,0.8-0.5c0-1.1-3.3-0.4-3.3-2.7c0-1.2,1-1.9,2.5-1.9c0.9,0,1.9,0.3,2.5,0.7l-0.6,1.3
		C103.6,454.3,102.8,454,102.2,454z"/>
	<path d="M110.6,452.8v1.4h-1.9v5h-1.6v-5h-1.9v-1.4H110.6z"/>
	<path d="M115,459.1l-0.9-1.7h0h-1.2v1.7h-1.6v-6.3h2.8c1.7,0,2.6,0.8,2.6,2.2c0,1-0.4,1.7-1.1,2l1.3,2.1H115z M112.9,456h1.2
		c0.7,0,1.1-0.3,1.1-1c0-0.6-0.4-1-1.1-1h-1.2V456z"/>
	<path d="M119.4,452.8v6.3h-1.6v-6.3H119.4z"/>
	<path d="M124.8,458h-2.7l-0.4,1.1H120l2.7-6.3h1.7l2.6,6.3h-1.8L124.8,458z M124.4,456.7l-0.9-2.3l-0.9,2.3H124.4z"/>
</g>
<g>
	<path d="M308.3,439v6.3h-1.6V439H308.3z"/>
	<path d="M311.8,442v1h-2.4v-1H311.8z"/>
	<path d="M317.5,443.3c0,1.2-1,2.1-2.6,2.1c-0.9,0-1.9-0.3-2.5-0.8l0.7-1.3c0.5,0.5,1.1,0.8,1.7,0.8c0.7,0,1.1-0.3,1.1-0.8
		c0-0.5-0.4-0.8-1.1-0.8h-1.1v-0.9l1.5-1.4h-2.4l0-1.3h4.4v1l-1.7,1.6l0.3,0C316.8,441.7,317.5,442.3,317.5,443.3z"/>
	<path d="M254.3,448v1.1l-3.3,3.9h3.4v1.3h-5.6v-1.1l3.3-3.9h-3.2V448H254.3z"/>
	<path d="M261.6,451.1c0,1.8-1.5,3.2-3.4,3.2s-3.4-1.4-3.4-3.2c0-1.8,1.5-3.2,3.4-3.2S261.6,449.3,261.6,451.1z M256.5,451.1
		c0,1,0.8,1.8,1.7,1.8c0.9,0,1.7-0.8,1.7-1.8s-0.8-1.8-1.7-1.8S256.5,450.1,256.5,451.1z"/>
	<path d="M263.9,448l2.9,3.8V448h1.5v6.3h-1.4l-2.9-3.8v3.8h-1.5V448H263.9z"/>
	<path d="M273.7,453.1H271l-0.4,1.1h-1.7l2.7-6.3h1.7l2.6,6.3h-1.8L273.7,453.1z M273.2,451.9l-0.9-2.3l-0.9,2.3H273.2z"/>
	<path d="M285.2,451.1c0,1.9-1.4,3.2-3.4,3.2h-2.7V448h2.7C283.9,448,285.2,449.2,285.2,451.1z M283.5,451.1c0-1.1-0.7-1.8-1.7-1.8
		h-1v3.6h1.1C282.9,452.9,283.5,452.2,283.5,451.1z"/>
	<path d="M291,448v1.3h-3.3v1.2h3v1.3l-3,0v1.2h3.4v1.3H286V448H291z"/>
	<path d="M299,451h1.4v2.5c-0.7,0.5-1.7,0.8-2.6,0.8c-1.9,0-3.4-1.4-3.4-3.2c0-1.8,1.5-3.2,3.5-3.2c0.9,0,1.9,0.4,2.6,0.9l-0.9,1.2
		c-0.5-0.4-1.1-0.7-1.7-0.7c-1,0-1.8,0.8-1.8,1.8c0,1,0.8,1.8,1.8,1.8c0.3,0,0.7-0.1,1.1-0.3V451z"/>
	<path d="M305.3,454.3l-0.9-1.7h0h-1.2v1.7h-1.6V448h2.8c1.7,0,2.6,0.8,2.6,2.2c0,1-0.4,1.7-1.1,2l1.3,2.1H305.3z M303.1,451.2h1.2
		c0.7,0,1.1-0.3,1.1-1c0-0.6-0.4-1-1.1-1h-1.2V451.2z"/>
	<path d="M312.2,453.1h-2.7l-0.4,1.1h-1.7l2.7-6.3h1.7l2.6,6.3h-1.8L312.2,453.1z M311.7,451.9l-0.9-2.3l-0.9,2.3H311.7z"/>
	<path d="M316.4,448l2.9,3.8V448h1.5v6.3h-1.4l-2.9-3.8v3.8H315V448H316.4z"/>
	<path d="M326.4,448v6.3h-1.6V448H326.4z"/>
	<path d="M329.1,448l2.9,3.8V448h1.5v6.3H332l-2.9-3.8v3.8h-1.5V448H329.1z"/>
	<path d="M340.8,451.1c0,1.9-1.4,3.2-3.4,3.2h-2.7V448h2.7C339.4,448,340.8,449.2,340.8,451.1z M339.1,451.1c0-1.1-0.7-1.8-1.7-1.8
		h-1v3.6h1.1C338.4,452.9,339.1,452.2,339.1,451.1z"/>
	<path d="M344.4,452.9c0.7,0,1.2-0.5,1.2-1.3V448h1.6v3.7c0,1.7-1.1,2.7-2.9,2.7c-1.8,0-2.9-1.1-2.9-2.7V448h1.6v3.7
		C343.1,452.4,343.7,452.9,344.4,452.9z"/>
	<path d="M350.7,449.2c-0.4,0-0.7,0.1-0.7,0.4c0,1,3.3,0.5,3.3,2.7c0,1.3-1.1,1.9-2.5,1.9c-1.1,0-2.2-0.4-2.9-1l0.6-1.3
		c0.6,0.6,1.6,1,2.3,1c0.5,0,0.8-0.2,0.8-0.5c0-1.1-3.3-0.4-3.3-2.7c0-1.2,1-1.9,2.5-1.9c0.9,0,1.9,0.3,2.5,0.7l-0.6,1.3
		C352.1,449.5,351.2,449.2,350.7,449.2z"/>
	<path d="M359.1,448v1.4h-1.9v5h-1.6v-5h-1.9V448H359.1z"/>
	<path d="M363.5,454.3l-0.9-1.7h0h-1.2v1.7h-1.6V448h2.8c1.7,0,2.6,0.8,2.6,2.2c0,1-0.4,1.7-1.1,2l1.3,2.1H363.5z M361.4,451.2h1.2
		c0.7,0,1.1-0.3,1.1-1c0-0.6-0.4-1-1.1-1h-1.2V451.2z"/>
	<path d="M367.9,448v6.3h-1.6V448H367.9z"/>
	<path d="M373.3,453.1h-2.7l-0.4,1.1h-1.7l2.7-6.3h1.7l2.6,6.3h-1.8L373.3,453.1z M372.8,451.9l-0.9-2.3l-0.9,2.3H372.8z"/>
</g>
<g>
	<path d="M509.1,434.3v6.3h-1.6v-6.3H509.1z"/>
	<path d="M512.6,437.4v1h-2.4v-1H512.6z"/>
	<path d="M518.3,438.6c0,1.2-1,2.1-2.6,2.1c-0.9,0-1.9-0.3-2.5-0.8l0.7-1.3c0.5,0.5,1.1,0.8,1.7,0.8c0.7,0,1.1-0.3,1.1-0.8
		c0-0.5-0.4-0.8-1.1-0.8h-1.1V437l1.5-1.4h-2.4l0-1.3h4.4v1l-1.7,1.6l0.3,0C517.6,437.1,518.3,437.7,518.3,438.6z"/>
	<path d="M482.1,443.3v1.1l-3.3,3.9h3.4v1.3h-5.6v-1.1l3.3-3.9h-3.2v-1.3H482.1z"/>
	<path d="M489.4,446.5c0,1.8-1.5,3.2-3.4,3.2c-2,0-3.4-1.4-3.4-3.2c0-1.8,1.5-3.2,3.4-3.2C488,443.3,489.4,444.6,489.4,446.5z
		 M484.3,446.5c0,1,0.8,1.8,1.7,1.8c0.9,0,1.7-0.8,1.7-1.8s-0.8-1.8-1.7-1.8S484.3,445.5,484.3,446.5z"/>
	<path d="M491.7,443.3l2.9,3.8v-3.8h1.5v6.3h-1.4l-2.9-3.8v3.8h-1.5v-6.3H491.7z"/>
	<path d="M501.5,448.5h-2.7l-0.4,1.1h-1.7l2.7-6.3h1.7l2.6,6.3h-1.8L501.5,448.5z M501,447.3l-0.9-2.3l-0.9,2.3H501z"/>
	<path d="M513,446.5c0,1.9-1.4,3.2-3.4,3.2H507v-6.3h2.7C511.7,443.3,513,444.6,513,446.5z M511.3,446.5c0-1.1-0.7-1.8-1.7-1.8h-1
		v3.6h1.1C510.7,448.3,511.3,447.6,511.3,446.5z"/>
	<path d="M518.8,443.3v1.3h-3.3v1.2h3v1.3l-3,0v1.2h3.4v1.3h-5.1v-6.3H518.8z"/>
	<path d="M526.8,446.4h1.4v2.5c-0.7,0.5-1.7,0.8-2.6,0.8c-1.9,0-3.4-1.4-3.4-3.2c0-1.8,1.5-3.2,3.5-3.2c0.9,0,1.9,0.4,2.6,0.9
		l-0.9,1.2c-0.5-0.4-1.1-0.7-1.7-0.7c-1,0-1.8,0.8-1.8,1.8c0,1,0.8,1.8,1.8,1.8c0.3,0,0.7-0.1,1.1-0.3V446.4z"/>
	<path d="M533.1,449.6l-0.9-1.7h0H531v1.7h-1.6v-6.3h2.8c1.7,0,2.6,0.8,2.6,2.2c0,1-0.4,1.7-1.1,2l1.3,2.1H533.1z M531,446.6h1.2
		c0.7,0,1.1-0.3,1.1-1c0-0.6-0.4-1-1.1-1H531V446.6z"/>
	<path d="M540,448.5h-2.7l-0.4,1.1h-1.7l2.7-6.3h1.7l2.6,6.3h-1.8L540,448.5z M539.5,447.3l-0.9-2.3l-0.9,2.3H539.5z"/>
	<path d="M544.2,443.3l2.9,3.8v-3.8h1.5v6.3h-1.4l-2.9-3.8v3.8h-1.5v-6.3H544.2z"/>
	<path d="M489.4,452.3v6.3h-1.6v-6.3H489.4z"/>
	<path d="M492,452.3l2.9,3.8v-3.8h1.5v6.3H495l-2.9-3.8v3.8h-1.5v-6.3H492z"/>
	<path d="M503.7,455.5c0,1.9-1.4,3.2-3.4,3.2h-2.7v-6.3h2.7C502.4,452.3,503.7,453.6,503.7,455.5z M502,455.5c0-1.1-0.7-1.8-1.7-1.8
		h-1v3.6h1.1C501.4,457.3,502,456.6,502,455.5z"/>
	<path d="M507.4,457.3c0.7,0,1.2-0.5,1.2-1.3v-3.7h1.6v3.7c0,1.7-1.1,2.7-2.9,2.7c-1.8,0-2.9-1.1-2.9-2.7v-3.7h1.6v3.7
		C506.1,456.8,506.6,457.3,507.4,457.3z"/>
	<path d="M513.7,453.6c-0.4,0-0.7,0.1-0.7,0.4c0,1,3.3,0.5,3.3,2.7c0,1.3-1.1,1.9-2.5,1.9c-1.1,0-2.2-0.4-2.9-1l0.6-1.3
		c0.6,0.6,1.6,1,2.3,1c0.5,0,0.8-0.2,0.8-0.5c0-1.1-3.3-0.4-3.3-2.7c0-1.2,1-1.9,2.5-1.9c0.9,0,1.9,0.3,2.5,0.7l-0.6,1.3
		C515.1,453.9,514.2,453.6,513.7,453.6z"/>
	<path d="M522,452.3v1.4h-1.9v5h-1.6v-5h-1.9v-1.4H522z"/>
	<path d="M526.5,458.6l-0.9-1.7h0h-1.2v1.7h-1.6v-6.3h2.8c1.7,0,2.6,0.8,2.6,2.2c0,1-0.4,1.7-1.1,2l1.3,2.1H526.5z M524.4,455.6h1.2
		c0.7,0,1.1-0.3,1.1-1c0-0.6-0.4-1-1.1-1h-1.2V455.6z"/>
	<path d="M530.9,452.3v6.3h-1.6v-6.3H530.9z"/>
	<path d="M536.3,457.5h-2.7l-0.4,1.1h-1.7l2.7-6.3h1.7l2.6,6.3h-1.8L536.3,457.5z M535.8,456.3L535,454l-0.9,2.3H535.8z"/>
</g>
<g>
	<path d="M552.7,476.7v6.3h-1.6v-6.3H552.7z"/>
	<path d="M556.2,479.7v1h-2.4v-1H556.2z"/>
	<path d="M560,478.5c0-0.3-0.3-0.5-0.7-0.5c-0.5,0-1.2,0.3-1.7,0.8l-0.6-1.2c0.8-0.6,1.7-1,2.6-1c1.3,0,2.2,0.7,2.2,1.7
		c0,0.7-0.5,1.4-1.2,2.1l-1.3,1.3h2.7v1.3h-4.8l0-1.1l2.3-2.4C559.8,479.2,560,478.8,560,478.5z"/>
	<path d="M500.9,485.7v1.1l-3.3,3.9h3.4v1.3h-5.6v-1.1l3.3-3.9h-3.2v-1.3H500.9z"/>
	<path d="M508.2,488.8c0,1.8-1.5,3.2-3.4,3.2s-3.4-1.4-3.4-3.2c0-1.8,1.5-3.2,3.4-3.2S508.2,487,508.2,488.8z M503.1,488.8
		c0,1,0.8,1.8,1.7,1.8c0.9,0,1.7-0.8,1.7-1.8s-0.8-1.8-1.7-1.8S503.1,487.8,503.1,488.8z"/>
	<path d="M510.5,485.7l2.9,3.8v-3.8h1.5v6.3h-1.4l-2.9-3.8v3.8h-1.5v-6.3H510.5z"/>
	<path d="M520.3,490.9h-2.7l-0.4,1.1h-1.7l2.7-6.3h1.7l2.6,6.3h-1.8L520.3,490.9z M519.9,489.6l-0.9-2.3l-0.9,2.3H519.9z"/>
	<path d="M527.4,485.7v6.3h-1.6v-6.3H527.4z"/>
	<path d="M530.1,485.7l2.9,3.8v-3.8h1.5v6.3h-1.4l-2.9-3.8v3.8h-1.5v-6.3H530.1z"/>
	<path d="M541.8,488.8c0,1.9-1.4,3.2-3.4,3.2h-2.7v-6.3h2.7C540.5,485.7,541.8,486.9,541.8,488.8z M540.1,488.8
		c0-1.1-0.7-1.8-1.7-1.8h-1v3.6h1.1C539.5,490.6,540.1,489.9,540.1,488.8z"/>
	<path d="M545.5,490.6c0.7,0,1.2-0.5,1.2-1.3v-3.7h1.6v3.7c0,1.7-1.1,2.7-2.9,2.7c-1.8,0-2.9-1.1-2.9-2.7v-3.7h1.6v3.7
		C544.2,490.1,544.7,490.6,545.5,490.6z"/>
	<path d="M551.8,486.9c-0.4,0-0.7,0.1-0.7,0.4c0,1,3.3,0.5,3.3,2.7c0,1.3-1.1,1.9-2.5,1.9c-1.1,0-2.2-0.4-2.9-1l0.6-1.3
		c0.6,0.6,1.6,1,2.3,1c0.5,0,0.8-0.2,0.8-0.5c0-1.1-3.3-0.4-3.3-2.7c0-1.2,1-1.9,2.5-1.9c0.9,0,1.9,0.3,2.5,0.7l-0.6,1.3
		C553.1,487.2,552.3,486.9,551.8,486.9z"/>
	<path d="M560.1,485.7v1.4h-1.9v5h-1.6v-5h-1.9v-1.4H560.1z"/>
	<path d="M564.6,492l-0.9-1.7h0h-1.2v1.7h-1.6v-6.3h2.8c1.7,0,2.6,0.8,2.6,2.2c0,1-0.4,1.7-1.1,2l1.3,2.1H564.6z M562.4,488.9h1.2
		c0.7,0,1.1-0.3,1.1-1c0-0.6-0.4-1-1.1-1h-1.2V488.9z"/>
	<path d="M569,485.7v6.3h-1.6v-6.3H569z"/>
	<path d="M574.4,490.9h-2.7l-0.4,1.1h-1.7l2.7-6.3h1.7l2.6,6.3h-1.8L574.4,490.9z M573.9,489.6l-0.9-2.3l-0.9,2.3H573.9z"/>
	<path d="M581.5,485.7v4.9h2.7v1.4h-4.3v-6.3H581.5z"/>
	<path d="M586.5,485.7v6.3h-1.6v-6.3H586.5z"/>
	<path d="M588.9,485.7l1.6,4.6l1.6-4.6h1.7l-2.5,6.3h-1.7l-2.4-6.3H588.9z"/>
	<path d="M596,485.7v6.3h-1.6v-6.3H596z"/>
	<path d="M601.4,490.9h-2.7l-0.4,1.1h-1.7l2.7-6.3h1.7l2.6,6.3h-1.8L601.4,490.9z M601,489.6l-0.9-2.3l-0.9,2.3H601z"/>
	<path d="M605.6,485.7l2.9,3.8v-3.8h1.5v6.3h-1.4l-2.9-3.8v3.8h-1.5v-6.3H605.6z"/>
	<path d="M615.5,490.9h-2.7l-0.4,1.1h-1.7l2.7-6.3h1.7l2.6,6.3h-1.8L615.5,490.9z M615,489.6l-0.9-2.3l-0.9,2.3H615z"/>
</g>
<g>
	<path d="M743.3,460.4v6.3h-1.6v-6.3H743.3z"/>
	<path d="M746.8,463.5v1h-2.4v-1H746.8z"/>
	<path d="M750.6,462.3c0-0.3-0.3-0.5-0.7-0.5c-0.5,0-1.2,0.3-1.7,0.8l-0.6-1.2c0.8-0.6,1.7-1,2.6-1c1.3,0,2.2,0.7,2.2,1.7
		c0,0.7-0.5,1.4-1.2,2.1l-1.3,1.3h2.7v1.3h-4.8l0-1.1l2.3-2.4C750.3,462.9,750.6,462.5,750.6,462.3z"/>
	<path d="M691.5,469.4v1.1l-3.3,3.9h3.4v1.3h-5.6v-1.1l3.3-3.9H686v-1.3H691.5z"/>
	<path d="M698.8,472.6c0,1.8-1.5,3.2-3.4,3.2c-2,0-3.4-1.4-3.4-3.2c0-1.8,1.5-3.2,3.4-3.2C697.3,469.4,698.8,470.8,698.8,472.6z
		 M693.7,472.6c0,1,0.8,1.8,1.7,1.8c0.9,0,1.7-0.8,1.7-1.8s-0.8-1.8-1.7-1.8S693.7,471.6,693.7,472.6z"/>
	<path d="M701.1,469.4l2.9,3.8v-3.8h1.5v6.3H704l-2.9-3.8v3.8h-1.5v-6.3H701.1z"/>
	<path d="M710.9,474.6h-2.7l-0.4,1.1H706l2.7-6.3h1.7l2.6,6.3h-1.8L710.9,474.6z M710.4,473.4l-0.9-2.3l-0.9,2.3H710.4z"/>
	<path d="M718,469.4v6.3h-1.6v-6.3H718z"/>
	<path d="M720.7,469.4l2.9,3.8v-3.8h1.5v6.3h-1.4l-2.9-3.8v3.8h-1.5v-6.3H720.7z"/>
	<path d="M732.4,472.6c0,1.9-1.4,3.2-3.4,3.2h-2.7v-6.3h2.7C731,469.4,732.4,470.7,732.4,472.6z M730.7,472.6c0-1.1-0.7-1.8-1.7-1.8
		h-1v3.6h1.1C730,474.4,730.7,473.7,730.7,472.6z"/>
	<path d="M736,474.4c0.7,0,1.2-0.5,1.2-1.3v-3.7h1.6v3.7c0,1.7-1.1,2.7-2.9,2.7c-1.8,0-2.9-1.1-2.9-2.7v-3.7h1.6v3.7
		C734.7,473.9,735.3,474.4,736,474.4z"/>
	<path d="M742.3,470.7c-0.4,0-0.7,0.1-0.7,0.4c0,1,3.3,0.5,3.3,2.7c0,1.3-1.1,1.9-2.5,1.9c-1.1,0-2.2-0.4-2.9-1l0.6-1.3
		c0.6,0.6,1.6,1,2.3,1c0.5,0,0.8-0.2,0.8-0.5c0-1.1-3.3-0.4-3.3-2.7c0-1.2,1-1.9,2.5-1.9c0.9,0,1.9,0.3,2.5,0.7l-0.6,1.3
		C743.7,471,742.8,470.7,742.3,470.7z"/>
	<path d="M750.7,469.4v1.4h-1.9v5h-1.6v-5h-1.9v-1.4H750.7z"/>
	<path d="M755.1,475.8l-0.9-1.7h0H753v1.7h-1.6v-6.3h2.8c1.7,0,2.6,0.8,2.6,2.2c0,1-0.4,1.7-1.1,2l1.3,2.1H755.1z M753,472.7h1.2
		c0.7,0,1.1-0.3,1.1-1c0-0.6-0.4-1-1.1-1H753V472.7z"/>
	<path d="M759.5,469.4v6.3h-1.6v-6.3H759.5z"/>
	<path d="M764.9,474.6h-2.7l-0.4,1.1h-1.7l2.7-6.3h1.7l2.6,6.3h-1.8L764.9,474.6z M764.5,473.4l-0.9-2.3l-0.9,2.3H764.5z"/>
	<path d="M772,469.4v4.9h2.7v1.4h-4.3v-6.3H772z"/>
	<path d="M777.1,469.4v6.3h-1.6v-6.3H777.1z"/>
	<path d="M779.5,469.4l1.6,4.6l1.6-4.6h1.7l-2.5,6.3h-1.7l-2.4-6.3H779.5z"/>
	<path d="M786.6,469.4v6.3h-1.6v-6.3H786.6z"/>
	<path d="M792,474.6h-2.7l-0.4,1.1h-1.7l2.7-6.3h1.7l2.6,6.3h-1.8L792,474.6z M791.5,473.4l-0.9-2.3l-0.9,2.3H791.5z"/>
	<path d="M796.2,469.4l2.9,3.8v-3.8h1.5v6.3h-1.4l-2.9-3.8v3.8h-1.5v-6.3H796.2z"/>
	<path d="M806,474.6h-2.7l-0.4,1.1h-1.7l2.7-6.3h1.7l2.6,6.3h-1.8L806,474.6z M805.5,473.4l-0.9-2.3l-0.9,2.3H805.5z"/>
</g>
<g>
	<path d="M887.9,427.1c-0.4,0-0.6,0.1-0.6,0.4c0,0.9,3,0.4,3,2.4c0,1.1-1,1.7-2.3,1.7c-0.9,0-1.9-0.3-2.6-0.9l0.6-1.1
		c0.6,0.5,1.4,0.8,2,0.8c0.4,0,0.7-0.2,0.7-0.5c0-1-3-0.4-3-2.4c0-1,0.9-1.7,2.2-1.7c0.8,0,1.7,0.3,2.2,0.6l-0.6,1.2
		C889.1,427.4,888.4,427.1,887.9,427.1z"/>
	<path d="M895.5,426v1.2h-3v1h2.7v1.2l-2.7,0v1.1h3v1.2H891V426H895.5z"/>
	<path d="M899.8,431.6L899,430h0h-1.1v1.6h-1.5V426h2.5c1.5,0,2.3,0.7,2.3,2c0,0.8-0.4,1.5-1,1.8l1.2,1.8H899.8z M897.9,428.9h1.1
		c0.6,0,0.9-0.3,0.9-0.9c0-0.6-0.3-0.8-0.9-0.8h-1.1V428.9z"/>
	<path d="M903.2,426l1.4,4.1l1.4-4.1h1.5l-2.2,5.6h-1.5l-2.2-5.6H903.2z"/>
	<path d="M909.5,426v5.6H908V426H909.5z"/>
	<path d="M913.2,427.2c-0.9,0-1.5,0.7-1.5,1.6c0,0.9,0.7,1.6,1.5,1.6c0.5,0,1-0.3,1.4-0.7l0.9,0.9c-0.6,0.6-1.5,1-2.3,1
		c-1.7,0-2.9-1.2-2.9-2.9c0-1.6,1.3-2.8,3-2.8c0.8,0,1.7,0.4,2.3,1l-0.8,1C914.3,427.5,913.7,427.2,913.2,427.2z"/>
	<path d="M917.6,426v5.6h-1.5V426H917.6z"/>
	<path d="M924.4,428.8c0,1.6-1.3,2.9-3,2.9c-1.7,0-3-1.2-3-2.9c0-1.6,1.3-2.8,3-2.8C923.1,425.9,924.4,427.1,924.4,428.8z
		 M919.8,428.8c0,0.9,0.7,1.6,1.5,1.6c0.8,0,1.5-0.7,1.5-1.6c0-0.9-0.7-1.6-1.5-1.6S919.8,427.9,919.8,428.8z"/>
	<path d="M927.2,427.1c-0.4,0-0.6,0.1-0.6,0.4c0,0.9,3,0.4,3,2.4c0,1.1-1,1.7-2.3,1.7c-0.9,0-1.9-0.3-2.6-0.9l0.6-1.1
		c0.6,0.5,1.4,0.8,2,0.8c0.4,0,0.7-0.2,0.7-0.5c0-1-3-0.4-3-2.4c0-1,0.9-1.7,2.2-1.7c0.8,0,1.7,0.3,2.2,0.6l-0.6,1.2
		C928.4,427.4,927.6,427.1,927.2,427.1z"/>
	<path d="M868.8,436.2c-0.9,0-1.5,0.7-1.5,1.6c0,0.9,0.7,1.6,1.5,1.6c0.5,0,1-0.3,1.4-0.7l0.9,0.9c-0.6,0.6-1.5,1-2.3,1
		c-1.7,0-2.9-1.2-2.9-2.9c0-1.6,1.3-2.8,3-2.8c0.8,0,1.7,0.4,2.3,1l-0.8,1C869.8,436.5,869.3,436.2,868.8,436.2z"/>
	<path d="M877.3,437.8c0,1.6-1.3,2.9-3,2.9c-1.7,0-3-1.2-3-2.9c0-1.6,1.3-2.8,3-2.8C876,434.9,877.3,436.1,877.3,437.8z
		 M872.7,437.8c0,0.9,0.7,1.6,1.5,1.6c0.8,0,1.5-0.7,1.5-1.6c0-0.9-0.7-1.6-1.5-1.6S872.7,436.9,872.7,437.8z"/>
	<path d="M879.6,435l1.5,3.3l1.5-3.3h1.6v5.6h-1.3l0-3.5l-1.3,3h-1l-1.3-3v3.5H878V435H879.6z"/>
	<path d="M890,436.9c0,1.3-0.8,2.1-2.3,2.1h-1v1.6h-1.5V435h2.5C889.2,435,890,435.7,890,436.9z M888.6,437c0-0.6-0.3-0.8-0.9-0.8
		h-0.9v1.7h0.9C888.3,437.9,888.6,437.5,888.6,437z"/>
	<path d="M892.2,435v4.4h2.4v1.2h-3.8V435H892.2z"/>
	<path d="M899.6,435v1.2h-3v1h2.7v1.2l-2.7,0v1.1h3v1.2h-4.5V435H899.6z"/>
	<path d="M902.2,435l1.5,3.3l1.5-3.3h1.6v5.6h-1.3l0-3.5l-1.3,3h-1l-1.3-3v3.5h-1.3V435H902.2z"/>
	<path d="M912.3,435v1.2h-3v1h2.7v1.2l-2.7,0v1.1h3v1.2h-4.5V435H912.3z"/>
	<path d="M914.6,435l2.5,3.4V435h1.4v5.6h-1.3l-2.5-3.4v3.4h-1.4V435H914.6z"/>
	<path d="M923.9,435v1.2h-1.7v4.4h-1.5v-4.4h-1.7V435H923.9z"/>
	<path d="M927.6,439.6h-2.4l-0.4,1h-1.5l2.4-5.6h1.5l2.4,5.6H928L927.6,439.6z M927.2,438.5l-0.8-2l-0.8,2H927.2z"/>
	<path d="M933.4,440.6l-0.8-1.6h0h-1.1v1.6h-1.5V435h2.5c1.5,0,2.3,0.7,2.3,2c0,0.8-0.4,1.5-1,1.8l1.2,1.8H933.4z M931.5,437.9h1.1
		c0.6,0,0.9-0.3,0.9-0.9c0-0.6-0.3-0.8-0.9-0.8h-1.1V437.9z"/>
	<path d="M937.3,435v5.6h-1.5V435H937.3z"/>
	<path d="M944.1,437.8c0,1.6-1.3,2.9-3,2.9s-3-1.2-3-2.9c0-1.6,1.3-2.8,3-2.8S944.1,436.1,944.1,437.8z M939.5,437.8
		c0,0.9,0.7,1.6,1.5,1.6c0.8,0,1.5-0.7,1.5-1.6c0-0.9-0.7-1.6-1.5-1.6C940.3,436.2,939.5,436.9,939.5,437.8z"/>
	<path d="M946.9,436.1c-0.4,0-0.6,0.1-0.6,0.4c0,0.9,3,0.4,3,2.4c0,1.1-1,1.7-2.3,1.7c-0.9,0-1.9-0.3-2.6-0.9l0.6-1.1
		c0.6,0.5,1.4,0.8,2,0.8c0.4,0,0.7-0.2,0.7-0.5c0-1-3-0.4-3-2.4c0-1,0.9-1.7,2.2-1.7c0.8,0,1.7,0.3,2.2,0.6l-0.6,1.2
		C948.1,436.4,947.4,436.1,946.9,436.1z"/>
</g>
<g>
	<path d="M308.3,483.2v6.3h-1.6v-6.3H308.3z"/>
	<path d="M311.8,486.2v1h-2.4v-1H311.8z"/>
	<path d="M315.6,485c0-0.3-0.3-0.5-0.7-0.5c-0.5,0-1.2,0.3-1.7,0.8l-0.6-1.2c0.8-0.6,1.7-1,2.6-1c1.3,0,2.2,0.7,2.2,1.7
		c0,0.7-0.5,1.4-1.2,2.1l-1.3,1.3h2.7v1.3h-4.8l0-1.1l2.3-2.4C315.4,485.7,315.6,485.3,315.6,485z"/>
	<path d="M248.7,492.2v1.1l-3.3,3.9h3.4v1.3h-5.6v-1.1l3.3-3.9h-3.2v-1.3H248.7z"/>
	<path d="M256,495.3c0,1.8-1.5,3.2-3.4,3.2s-3.4-1.4-3.4-3.2c0-1.8,1.5-3.2,3.4-3.2S256,493.5,256,495.3z M250.9,495.3
		c0,1,0.8,1.8,1.7,1.8c0.9,0,1.7-0.8,1.7-1.8s-0.8-1.8-1.7-1.8S250.9,494.3,250.9,495.3z"/>
	<path d="M258.3,492.2l2.9,3.8v-3.8h1.5v6.3h-1.4l-2.9-3.8v3.8h-1.5v-6.3H258.3z"/>
	<path d="M268.1,497.4h-2.7l-0.4,1.1h-1.7l2.7-6.3h1.7l2.6,6.3h-1.8L268.1,497.4z M267.6,496.1l-0.9-2.3l-0.9,2.3H267.6z"/>
	<path d="M279.6,495.3c0,1.9-1.4,3.2-3.4,3.2h-2.7v-6.3h2.7C278.3,492.2,279.6,493.5,279.6,495.3z M278,495.3c0-1.1-0.7-1.8-1.7-1.8
		h-1v3.6h1.1C277.3,497.2,278,496.4,278,495.3z"/>
	<path d="M285.4,492.2v1.3h-3.3v1.2h3v1.3l-3,0v1.2h3.4v1.3h-5.1v-6.3H285.4z"/>
	<path d="M290.9,492.2v6.3h-1.6v-6.3H290.9z"/>
	<path d="M293.6,492.2l2.9,3.8v-3.8h1.5v6.3h-1.4l-2.9-3.8v3.8h-1.5v-6.3H293.6z"/>
	<path d="M305.3,495.3c0,1.9-1.4,3.2-3.4,3.2h-2.7v-6.3h2.7C303.9,492.2,305.3,493.5,305.3,495.3z M303.6,495.3
		c0-1.1-0.7-1.8-1.7-1.8h-1v3.6h1.1C302.9,497.2,303.6,496.4,303.6,495.3z"/>
	<path d="M308.9,497.2c0.7,0,1.2-0.5,1.2-1.3v-3.7h1.6v3.7c0,1.7-1.1,2.7-2.9,2.7c-1.8,0-2.9-1.1-2.9-2.7v-3.7h1.6v3.7
		C307.6,496.6,308.2,497.2,308.9,497.2z"/>
	<path d="M315.2,493.4c-0.4,0-0.7,0.1-0.7,0.4c0,1,3.3,0.5,3.3,2.7c0,1.3-1.1,1.9-2.5,1.9c-1.1,0-2.2-0.4-2.9-1l0.6-1.3
		c0.6,0.6,1.6,1,2.3,1c0.5,0,0.8-0.2,0.8-0.5c0-1.1-3.3-0.4-3.3-2.7c0-1.2,1-1.9,2.5-1.9c0.9,0,1.9,0.3,2.5,0.7l-0.6,1.3
		C316.6,493.7,315.7,493.4,315.2,493.4z"/>
	<path d="M323.6,492.2v1.4h-1.9v5H320v-5h-1.9v-1.4H323.6z"/>
	<path d="M328,498.5l-0.9-1.7h0h-1.2v1.7h-1.6v-6.3h2.8c1.7,0,2.6,0.8,2.6,2.2c0,1-0.4,1.7-1.1,2l1.3,2.1H328z M325.9,495.4h1.2
		c0.7,0,1.1-0.3,1.1-1c0-0.6-0.4-1-1.1-1h-1.2V495.4z"/>
	<path d="M332.4,492.2v6.3h-1.6v-6.3H332.4z"/>
	<path d="M337.8,497.4h-2.7l-0.4,1.1H333l2.7-6.3h1.7l2.6,6.3h-1.8L337.8,497.4z M337.3,496.1l-0.9-2.3l-0.9,2.3H337.3z"/>
	<path d="M344.9,492.2v4.9h2.7v1.4h-4.3v-6.3H344.9z"/>
	<path d="M350,492.2v6.3h-1.6v-6.3H350z"/>
	<path d="M352.4,492.2l1.6,4.6l1.6-4.6h1.7l-2.5,6.3H353l-2.4-6.3H352.4z"/>
	<path d="M359.5,492.2v6.3h-1.6v-6.3H359.5z"/>
	<path d="M364.9,497.4h-2.7l-0.4,1.1H360l2.7-6.3h1.7l2.6,6.3h-1.8L364.9,497.4z M364.4,496.1l-0.9-2.3l-0.9,2.3H364.4z"/>
	<path d="M369.1,492.2l2.9,3.8v-3.8h1.5v6.3H372l-2.9-3.8v3.8h-1.5v-6.3H369.1z"/>
	<path d="M378.9,497.4h-2.7l-0.4,1.1H374l2.7-6.3h1.7l2.6,6.3h-1.8L378.9,497.4z M378.4,496.1l-0.9-2.3l-0.9,2.3H378.4z"/>
</g>
<g>
	<path d="M308.4,542.4v6.3h-1.6v-6.3H308.4z"/>
	<path d="M311.9,545.4v1h-2.4v-1H311.9z"/>
	<path d="M316,542.4v6.3h-1.6v-5h-1.2v-1.3H316z"/>
	<path d="M240.2,551.4v1.1l-3.3,3.9h3.4v1.3h-5.6v-1.1l3.3-3.9h-3.2v-1.3H240.2z"/>
	<path d="M247.5,554.5c0,1.8-1.5,3.2-3.4,3.2s-3.4-1.4-3.4-3.2c0-1.8,1.5-3.2,3.4-3.2S247.5,552.7,247.5,554.5z M242.4,554.5
		c0,1,0.8,1.8,1.7,1.8c0.9,0,1.7-0.8,1.7-1.8s-0.8-1.8-1.7-1.8S242.4,553.5,242.4,554.5z"/>
	<path d="M249.8,551.4l2.9,3.8v-3.8h1.5v6.3h-1.4l-2.9-3.8v3.8h-1.5v-6.3H249.8z"/>
	<path d="M259.6,556.6h-2.7l-0.4,1.1h-1.7l2.7-6.3h1.7l2.6,6.3h-1.8L259.6,556.6z M259.1,555.3l-0.9-2.3l-0.9,2.3H259.1z"/>
	<path d="M271.2,554.5c0,1.9-1.4,3.2-3.4,3.2h-2.7v-6.3h2.7C269.8,551.4,271.2,552.7,271.2,554.5z M269.5,554.5
		c0-1.1-0.7-1.8-1.7-1.8h-1v3.6h1.1C268.8,556.4,269.5,555.6,269.5,554.5z"/>
	<path d="M276.9,551.4v1.3h-3.3v1.2h3v1.3l-3,0v1.2h3.4v1.3H272v-6.3H276.9z"/>
	<path d="M282.4,551.4v6.3h-1.6v-6.3H282.4z"/>
	<path d="M285.1,551.4l2.9,3.8v-3.8h1.5v6.3H288l-2.9-3.8v3.8h-1.5v-6.3H285.1z"/>
	<path d="M296.8,554.5c0,1.9-1.4,3.2-3.4,3.2h-2.7v-6.3h2.7C295.4,551.4,296.8,552.7,296.8,554.5z M295.1,554.5
		c0-1.1-0.7-1.8-1.7-1.8h-1v3.6h1.1C294.4,556.4,295.1,555.6,295.1,554.5z"/>
	<path d="M300.4,556.4c0.7,0,1.2-0.5,1.2-1.3v-3.7h1.6v3.7c0,1.7-1.1,2.7-2.9,2.7c-1.8,0-2.9-1.1-2.9-2.7v-3.7h1.6v3.7
		C299.1,555.9,299.7,556.4,300.4,556.4z"/>
	<path d="M306.7,552.6c-0.4,0-0.7,0.1-0.7,0.4c0,1,3.3,0.5,3.3,2.7c0,1.3-1.1,1.9-2.5,1.9c-1.1,0-2.2-0.4-2.9-1l0.6-1.3
		c0.6,0.6,1.6,1,2.3,1c0.5,0,0.8-0.2,0.8-0.5c0-1.1-3.3-0.4-3.3-2.7c0-1.2,1-1.9,2.5-1.9c0.9,0,1.9,0.3,2.5,0.7l-0.6,1.3
		C308.1,552.9,307.2,552.6,306.7,552.6z"/>
	<path d="M315.1,551.4v1.4h-1.9v5h-1.6v-5h-1.9v-1.4H315.1z"/>
	<path d="M319.5,557.7l-0.9-1.7h0h-1.2v1.7h-1.6v-6.3h2.8c1.7,0,2.6,0.8,2.6,2.2c0,1-0.4,1.7-1.1,2l1.3,2.1H319.5z M317.4,554.6h1.2
		c0.7,0,1.1-0.3,1.1-1c0-0.6-0.4-1-1.1-1h-1.2V554.6z"/>
	<path d="M323.9,551.4v6.3h-1.6v-6.3H323.9z"/>
	<path d="M329.3,556.6h-2.7l-0.4,1.1h-1.7l2.7-6.3h1.7l2.6,6.3h-1.8L329.3,556.6z M328.8,555.3l-0.9-2.3l-0.9,2.3H328.8z"/>
	<path d="M339.8,551.4v1.3h-3.3v1.2h3v1.3l-3,0v1.2h3.4v1.3h-5.1v-6.3H339.8z"/>
	<path d="M342.5,551.4v4.9h2.7v1.4h-4.3v-6.3H342.5z"/>
	<path d="M350.9,551.4v1.3h-3.3v1.2h3v1.3l-3,0v1.2h3.4v1.3h-5.1v-6.3H350.9z"/>
	<path d="M353.8,551.4l1.7,3.7l1.7-3.7h1.8v6.3h-1.5l0-4l-1.5,3.4h-1.1l-1.5-3.4v4H352v-6.3H353.8z"/>
	<path d="M365.2,551.4v1.3h-3.3v1.2h3v1.3l-3,0v1.2h3.4v1.3h-5.1v-6.3H365.2z"/>
	<path d="M367.7,551.4l2.9,3.8v-3.8h1.5v6.3h-1.4l-2.9-3.8v3.8h-1.5v-6.3H367.7z"/>
	<path d="M378.2,551.4v1.4h-1.9v5h-1.6v-5h-1.9v-1.4H378.2z"/>
	<path d="M382.4,556.6h-2.7l-0.4,1.1h-1.7l2.7-6.3h1.7l2.6,6.3h-1.8L382.4,556.6z M381.9,555.3l-0.9-2.3l-0.9,2.3H381.9z"/>
	<path d="M386.8,551.4v4.9h2.7v1.4h-4.3v-6.3H386.8z"/>
	<path d="M267.4,564.7v2h-1.6v-2l-2.3-4.3h1.6l1.5,2.7l1.5-2.7h1.6L267.4,564.7z"/>
	<path d="M275.9,561.7c-1,0-1.7,0.8-1.7,1.8c0,1,0.7,1.8,1.7,1.8c0.5,0,1.1-0.3,1.6-0.7l1,1c-0.7,0.7-1.7,1.2-2.6,1.2
		c-1.9,0-3.3-1.4-3.3-3.2c0-1.8,1.4-3.2,3.4-3.2c0.9,0,1.9,0.4,2.5,1.1l-1,1.1C277.1,562.1,276.5,561.7,275.9,561.7z"/>
	<path d="M285.4,563.5c0,1.8-1.5,3.2-3.4,3.2s-3.4-1.4-3.4-3.2c0-1.8,1.5-3.2,3.4-3.2S285.4,561.7,285.4,563.5z M280.3,563.5
		c0,1,0.8,1.8,1.7,1.8c0.9,0,1.7-0.8,1.7-1.8s-0.8-1.8-1.7-1.8S280.3,562.5,280.3,563.5z"/>
	<path d="M288.1,560.4l1.7,3.7l1.7-3.7h1.8v6.3h-1.5l0-4l-1.5,3.4h-1.1l-1.5-3.4v4h-1.5v-6.3H288.1z"/>
	<path d="M299.7,562.6c0,1.5-0.9,2.4-2.5,2.4h-1.1v1.7h-1.6v-6.3h2.8C298.8,560.4,299.7,561.2,299.7,562.6z M298.2,562.6
		c0-0.6-0.4-1-1.1-1h-1v1.9h1C297.8,563.6,298.2,563.3,298.2,562.6z"/>
	<path d="M302.2,560.4v4.9h2.7v1.4h-4.3v-6.3H302.2z"/>
	<path d="M310.6,560.4v1.3h-3.3v1.2h3v1.3l-3,0v1.2h3.4v1.3h-5.1v-6.3H310.6z"/>
	<path d="M313.5,560.4l1.7,3.7l1.7-3.7h1.8v6.3h-1.5l0-4l-1.5,3.4h-1.1l-1.5-3.4v4h-1.5v-6.3H313.5z"/>
	<path d="M324.8,560.4v1.3h-3.3v1.2h3v1.3l-3,0v1.2h3.4v1.3h-5.1v-6.3H324.8z"/>
	<path d="M327.4,560.4l2.9,3.8v-3.8h1.5v6.3h-1.4l-2.9-3.8v3.8h-1.5v-6.3H327.4z"/>
	<path d="M337.9,560.4v1.4H336v5h-1.6v-5h-1.9v-1.4H337.9z"/>
	<path d="M342.1,565.6h-2.7l-0.4,1.1h-1.7l2.7-6.3h1.7l2.6,6.3h-1.8L342.1,565.6z M341.6,564.3l-0.9-2.3l-0.9,2.3H341.6z"/>
	<path d="M348.6,566.7l-0.9-1.7h0h-1.2v1.7h-1.6v-6.3h2.8c1.7,0,2.6,0.8,2.6,2.2c0,1-0.4,1.7-1.1,2l1.3,2.1H348.6z M346.5,563.6h1.2
		c0.7,0,1.1-0.3,1.1-1c0-0.6-0.4-1-1.1-1h-1.2V563.6z"/>
	<path d="M353,560.4v6.3h-1.6v-6.3H353z"/>
	<path d="M358.4,565.6h-2.7l-0.4,1.1h-1.7l2.7-6.3h1.7l2.6,6.3h-1.8L358.4,565.6z M357.9,564.3l-0.9-2.3l-0.9,2.3H357.9z"/>
</g>
<g>
	<path d="M552.6,541.8v6.3H551v-6.3H552.6z"/>
	<path d="M556.1,544.8v1h-2.4v-1H556.1z"/>
	<path d="M560.3,541.8v6.3h-1.6v-5h-1.2v-1.3H560.3z"/>
	<path d="M484.4,550.8v1.1l-3.3,3.9h3.4v1.3h-5.6V556l3.3-3.9H479v-1.3H484.4z"/>
	<path d="M491.8,553.9c0,1.8-1.5,3.2-3.4,3.2s-3.4-1.4-3.4-3.2c0-1.8,1.5-3.2,3.4-3.2S491.8,552.1,491.8,553.9z M486.6,553.9
		c0,1,0.8,1.8,1.7,1.8c0.9,0,1.7-0.8,1.7-1.8s-0.8-1.8-1.7-1.8S486.6,552.9,486.6,553.9z"/>
	<path d="M494,550.8l2.9,3.8v-3.8h1.5v6.3H497l-2.9-3.8v3.8h-1.5v-6.3H494z"/>
	<path d="M503.9,556h-2.7l-0.4,1.1H499l2.7-6.3h1.7l2.6,6.3h-1.8L503.9,556z M503.4,554.7l-0.9-2.3l-0.9,2.3H503.4z"/>
	<path d="M515.4,553.9c0,1.9-1.4,3.2-3.4,3.2h-2.7v-6.3h2.7C514,550.8,515.4,552,515.4,553.9z M513.7,553.9c0-1.1-0.7-1.8-1.7-1.8
		h-1v3.6h1.1C513,555.7,513.7,555,513.7,553.9z"/>
	<path d="M521.2,550.8v1.3h-3.3v1.2h3v1.3l-3,0v1.2h3.4v1.3h-5.1v-6.3H521.2z"/>
	<path d="M526.6,550.8v6.3H525v-6.3H526.6z"/>
	<path d="M529.3,550.8l2.9,3.8v-3.8h1.5v6.3h-1.4l-2.9-3.8v3.8h-1.5v-6.3H529.3z"/>
	<path d="M541,553.9c0,1.9-1.4,3.2-3.4,3.2h-2.7v-6.3h2.7C539.6,550.8,541,552,541,553.9z M539.3,553.9c0-1.1-0.7-1.8-1.7-1.8h-1
		v3.6h1.1C538.7,555.7,539.3,555,539.3,553.9z"/>
	<path d="M544.7,555.7c0.7,0,1.2-0.5,1.2-1.3v-3.7h1.6v3.7c0,1.7-1.1,2.7-2.9,2.7c-1.8,0-2.9-1.1-2.9-2.7v-3.7h1.6v3.7
		C543.4,555.2,543.9,555.7,544.7,555.7z"/>
	<path d="M551,552c-0.4,0-0.7,0.1-0.7,0.4c0,1,3.3,0.5,3.3,2.7c0,1.3-1.1,1.9-2.5,1.9c-1.1,0-2.2-0.4-2.9-1l0.6-1.3
		c0.6,0.6,1.6,1,2.3,1c0.5,0,0.8-0.2,0.8-0.5c0-1.1-3.3-0.4-3.3-2.7c0-1.2,1-1.9,2.5-1.9c0.9,0,1.9,0.3,2.5,0.7l-0.6,1.3
		C552.3,552.3,551.5,552,551,552z"/>
	<path d="M559.3,550.8v1.4h-1.9v5h-1.6v-5h-1.9v-1.4H559.3z"/>
	<path d="M563.8,557.1l-0.9-1.7h0h-1.2v1.7H560v-6.3h2.8c1.7,0,2.6,0.8,2.6,2.2c0,1-0.4,1.7-1.1,2l1.3,2.1H563.8z M561.6,554h1.2
		c0.7,0,1.1-0.3,1.1-1c0-0.6-0.4-1-1.1-1h-1.2V554z"/>
	<path d="M568.2,550.8v6.3h-1.6v-6.3H568.2z"/>
	<path d="M573.6,556h-2.7l-0.4,1.1h-1.7l2.7-6.3h1.7l2.6,6.3H574L573.6,556z M573.1,554.7l-0.9-2.3l-0.9,2.3H573.1z"/>
	<path d="M584,550.8v1.3h-3.3v1.2h3v1.3l-3,0v1.2h3.4v1.3H579v-6.3H584z"/>
	<path d="M586.8,550.8v4.9h2.7v1.4h-4.3v-6.3H586.8z"/>
	<path d="M595.2,550.8v1.3h-3.3v1.2h3v1.3l-3,0v1.2h3.4v1.3h-5.1v-6.3H595.2z"/>
	<path d="M598,550.8l1.7,3.7l1.7-3.7h1.8v6.3h-1.5l0-4l-1.5,3.4h-1.1l-1.5-3.4v4h-1.5v-6.3H598z"/>
	<path d="M609.4,550.8v1.3h-3.3v1.2h3v1.3l-3,0v1.2h3.4v1.3h-5.1v-6.3H609.4z"/>
	<path d="M611.9,550.8l2.9,3.8v-3.8h1.5v6.3h-1.4l-2.9-3.8v3.8h-1.5v-6.3H611.9z"/>
	<path d="M622.4,550.8v1.4h-1.9v5h-1.6v-5H617v-1.4H622.4z"/>
	<path d="M626.6,556h-2.7l-0.4,1.1h-1.7l2.7-6.3h1.7l2.6,6.3h-1.8L626.6,556z M626.1,554.7l-0.9-2.3l-0.9,2.3H626.1z"/>
	<path d="M631,550.8v4.9h2.7v1.4h-4.3v-6.3H631z"/>
	<path d="M511.6,564.1v2H510v-2l-2.3-4.3h1.6l1.5,2.7l1.5-2.7h1.6L511.6,564.1z"/>
	<path d="M520.2,561.1c-1,0-1.7,0.8-1.7,1.8c0,1,0.7,1.8,1.7,1.8c0.5,0,1.1-0.3,1.6-0.7l1,1c-0.7,0.7-1.7,1.2-2.6,1.2
		c-1.9,0-3.3-1.4-3.3-3.2c0-1.8,1.4-3.2,3.4-3.2c0.9,0,1.9,0.4,2.5,1.1l-1,1.1C521.3,561.4,520.7,561.1,520.2,561.1z"/>
	<path d="M529.7,562.9c0,1.8-1.5,3.2-3.4,3.2c-2,0-3.4-1.4-3.4-3.2c0-1.8,1.5-3.2,3.4-3.2C528.2,559.7,529.7,561.1,529.7,562.9z
		 M524.6,562.9c0,1,0.8,1.8,1.7,1.8c0.9,0,1.7-0.8,1.7-1.8s-0.8-1.8-1.7-1.8S524.6,561.9,524.6,562.9z"/>
	<path d="M532.3,559.8l1.7,3.7l1.7-3.7h1.8v6.3H536l0-4l-1.5,3.4h-1.1l-1.5-3.4v4h-1.5v-6.3H532.3z"/>
	<path d="M544,562c0,1.5-0.9,2.4-2.5,2.4h-1.1v1.7h-1.6v-6.3h2.8C543.1,559.8,544,560.6,544,562z M542.4,562c0-0.6-0.4-1-1.1-1h-1
		v1.9h1C542,563,542.4,562.7,542.4,562z"/>
	<path d="M546.4,559.8v4.9h2.7v1.4h-4.3v-6.3H546.4z"/>
	<path d="M554.8,559.8v1.3h-3.3v1.2h3v1.3l-3,0v1.2h3.4v1.3h-5.1v-6.3H554.8z"/>
	<path d="M557.7,559.8l1.7,3.7l1.7-3.7h1.8v6.3h-1.5l0-4l-1.5,3.4h-1.1l-1.5-3.4v4h-1.5v-6.3H557.7z"/>
	<path d="M569.1,559.8v1.3h-3.3v1.2h3v1.3l-3,0v1.2h3.4v1.3h-5.1v-6.3H569.1z"/>
	<path d="M571.6,559.8l2.9,3.8v-3.8h1.5v6.3h-1.4l-2.9-3.8v3.8h-1.5v-6.3H571.6z"/>
	<path d="M582.1,559.8v1.4h-1.9v5h-1.6v-5h-1.9v-1.4H582.1z"/>
	<path d="M586.3,565h-2.7l-0.4,1.1h-1.7l2.7-6.3h1.7l2.6,6.3h-1.8L586.3,565z M585.8,563.7l-0.9-2.3l-0.9,2.3H585.8z"/>
	<path d="M592.9,566.1l-0.9-1.7h0h-1.2v1.7h-1.6v-6.3h2.8c1.7,0,2.6,0.8,2.6,2.2c0,1-0.4,1.7-1.1,2l1.3,2.1H592.9z M590.7,563h1.2
		c0.7,0,1.1-0.3,1.1-1c0-0.6-0.4-1-1.1-1h-1.2V563z"/>
	<path d="M597.2,559.8v6.3h-1.6v-6.3H597.2z"/>
	<path d="M602.7,565h-2.7l-0.4,1.1h-1.7l2.7-6.3h1.7l2.6,6.3h-1.8L602.7,565z M602.2,563.7l-0.9-2.3l-0.9,2.3H602.2z"/>
</g>
<g>
	<path d="M743.3,541.8v6.3h-1.6v-6.3H743.3z"/>
	<path d="M746.8,544.8v1h-2.4v-1H746.8z"/>
	<path d="M751,541.8v6.3h-1.6v-5h-1.2v-1.3H751z"/>
	<path d="M675.2,550.8v1.1l-3.3,3.9h3.4v1.3h-5.6V556l3.3-3.9h-3.2v-1.3H675.2z"/>
	<path d="M682.5,553.9c0,1.8-1.5,3.2-3.4,3.2c-2,0-3.4-1.4-3.4-3.2c0-1.8,1.5-3.2,3.4-3.2C681,550.7,682.5,552.1,682.5,553.9z
		 M677.4,553.9c0,1,0.8,1.8,1.7,1.8c0.9,0,1.7-0.8,1.7-1.8s-0.8-1.8-1.7-1.8S677.4,552.9,677.4,553.9z"/>
	<path d="M684.8,550.8l2.9,3.8v-3.8h1.5v6.3h-1.4l-2.9-3.8v3.8h-1.5v-6.3H684.8z"/>
	<path d="M694.6,556h-2.7l-0.4,1.1h-1.7l2.7-6.3h1.7l2.6,6.3H695L694.6,556z M694.1,554.7l-0.9-2.3l-0.9,2.3H694.1z"/>
	<path d="M706.1,553.9c0,1.9-1.4,3.2-3.4,3.2H700v-6.3h2.7C704.8,550.8,706.1,552,706.1,553.9z M704.4,553.9c0-1.1-0.7-1.8-1.7-1.8
		h-1v3.6h1.1C703.8,555.7,704.4,555,704.4,553.9z"/>
	<path d="M711.9,550.8v1.3h-3.3v1.2h3v1.3l-3,0v1.2h3.4v1.3h-5.1v-6.3H711.9z"/>
	<path d="M717.4,550.8v6.3h-1.6v-6.3H717.4z"/>
	<path d="M720,550.8l2.9,3.8v-3.8h1.5v6.3H723l-2.9-3.8v3.8h-1.5v-6.3H720z"/>
	<path d="M731.7,553.9c0,1.9-1.4,3.2-3.4,3.2h-2.7v-6.3h2.7C730.4,550.8,731.7,552,731.7,553.9z M730,553.9c0-1.1-0.7-1.8-1.7-1.8
		h-1v3.6h1.1C729.4,555.7,730,555,730,553.9z"/>
	<path d="M735.4,555.7c0.7,0,1.2-0.5,1.2-1.3v-3.7h1.6v3.7c0,1.7-1.1,2.7-2.9,2.7c-1.8,0-2.9-1.1-2.9-2.7v-3.7h1.6v3.7
		C734.1,555.2,734.6,555.7,735.4,555.7z"/>
	<path d="M741.7,552c-0.4,0-0.7,0.1-0.7,0.4c0,1,3.3,0.5,3.3,2.7c0,1.3-1.1,1.9-2.5,1.9c-1.1,0-2.2-0.4-2.9-1l0.6-1.3
		c0.6,0.6,1.6,1,2.3,1c0.5,0,0.8-0.2,0.8-0.5c0-1.1-3.3-0.4-3.3-2.7c0-1.2,1-1.9,2.5-1.9c0.9,0,1.9,0.3,2.5,0.7l-0.6,1.3
		C743.1,552.3,742.2,552,741.7,552z"/>
	<path d="M750,550.8v1.4h-1.9v5h-1.6v-5h-1.9v-1.4H750z"/>
	<path d="M754.5,557.1l-0.9-1.7h0h-1.2v1.7h-1.6v-6.3h2.8c1.7,0,2.6,0.8,2.6,2.2c0,1-0.4,1.7-1.1,2l1.3,2.1H754.5z M752.4,554h1.2
		c0.7,0,1.1-0.3,1.1-1c0-0.6-0.4-1-1.1-1h-1.2V554z"/>
	<path d="M758.9,550.8v6.3h-1.6v-6.3H758.9z"/>
	<path d="M764.3,556h-2.7l-0.4,1.1h-1.7l2.7-6.3h1.7l2.6,6.3h-1.8L764.3,556z M763.8,554.7l-0.9-2.3l-0.9,2.3H763.8z"/>
	<path d="M774.7,550.8v1.3h-3.3v1.2h3v1.3l-3,0v1.2h3.4v1.3h-5.1v-6.3H774.7z"/>
	<path d="M777.5,550.8v4.9h2.7v1.4h-4.3v-6.3H777.5z"/>
	<path d="M785.9,550.8v1.3h-3.3v1.2h3v1.3l-3,0v1.2h3.4v1.3h-5.1v-6.3H785.9z"/>
	<path d="M788.8,550.8l1.7,3.7l1.7-3.7h1.8v6.3h-1.5l0-4l-1.5,3.4h-1.1l-1.5-3.4v4H787v-6.3H788.8z"/>
	<path d="M800.1,550.8v1.3h-3.3v1.2h3v1.3l-3,0v1.2h3.4v1.3h-5.1v-6.3H800.1z"/>
	<path d="M802.7,550.8l2.9,3.8v-3.8h1.5v6.3h-1.4l-2.9-3.8v3.8h-1.5v-6.3H802.7z"/>
	<path d="M813.2,550.8v1.4h-1.9v5h-1.6v-5h-1.9v-1.4H813.2z"/>
	<path d="M817.3,556h-2.7l-0.4,1.1h-1.7l2.7-6.3h1.7l2.6,6.3h-1.8L817.3,556z M816.9,554.7l-0.9-2.3l-0.9,2.3H816.9z"/>
	<path d="M821.7,550.8v4.9h2.7v1.4h-4.3v-6.3H821.7z"/>
	<path d="M702.3,564.1v2h-1.6v-2l-2.3-4.3h1.6l1.5,2.7l1.5-2.7h1.6L702.3,564.1z"/>
	<path d="M710.9,561.1c-1,0-1.7,0.8-1.7,1.8c0,1,0.7,1.8,1.7,1.8c0.5,0,1.1-0.3,1.6-0.7l1,1c-0.7,0.7-1.7,1.2-2.6,1.2
		c-1.9,0-3.3-1.4-3.3-3.2c0-1.8,1.4-3.2,3.4-3.2c0.9,0,1.9,0.4,2.5,1.1l-1,1.1C712,561.4,711.4,561.1,710.9,561.1z"/>
	<path d="M720.4,562.9c0,1.8-1.5,3.2-3.4,3.2c-2,0-3.4-1.4-3.4-3.2c0-1.8,1.5-3.2,3.4-3.2C719,559.7,720.4,561.1,720.4,562.9z
		 M715.3,562.9c0,1,0.8,1.8,1.7,1.8c0.9,0,1.7-0.8,1.7-1.8s-0.8-1.8-1.7-1.8S715.3,561.9,715.3,562.9z"/>
	<path d="M723,559.8l1.7,3.7l1.7-3.7h1.8v6.3h-1.5l0-4l-1.5,3.4h-1.1l-1.5-3.4v4h-1.5v-6.3H723z"/>
	<path d="M734.7,562c0,1.5-0.9,2.4-2.5,2.4h-1.1v1.7h-1.6v-6.3h2.8C733.8,559.8,734.7,560.6,734.7,562z M733.1,562
		c0-0.6-0.4-1-1.1-1h-1v1.9h1C732.8,563,733.1,562.7,733.1,562z"/>
	<path d="M737.2,559.8v4.9h2.7v1.4h-4.3v-6.3H737.2z"/>
	<path d="M745.6,559.8v1.3h-3.3v1.2h3v1.3l-3,0v1.2h3.4v1.3h-5.1v-6.3H745.6z"/>
	<path d="M748.5,559.8l1.7,3.7l1.7-3.7h1.8v6.3h-1.5l0-4l-1.5,3.4h-1.1l-1.5-3.4v4h-1.5v-6.3H748.5z"/>
	<path d="M759.8,559.8v1.3h-3.3v1.2h3v1.3l-3,0v1.2h3.4v1.3h-5.1v-6.3H759.8z"/>
	<path d="M762.4,559.8l2.9,3.8v-3.8h1.5v6.3h-1.4l-2.9-3.8v3.8h-1.5v-6.3H762.4z"/>
	<path d="M772.8,559.8v1.4H771v5h-1.6v-5h-1.9v-1.4H772.8z"/>
	<path d="M777,565h-2.7l-0.4,1.1h-1.7l2.7-6.3h1.7l2.6,6.3h-1.8L777,565z M776.6,563.7l-0.9-2.3l-0.9,2.3H776.6z"/>
	<path d="M783.6,566.1l-0.9-1.7h0h-1.2v1.7h-1.6v-6.3h2.8c1.7,0,2.6,0.8,2.6,2.2c0,1-0.4,1.7-1.1,2l1.3,2.1H783.6z M781.4,563h1.2
		c0.7,0,1.1-0.3,1.1-1c0-0.6-0.4-1-1.1-1h-1.2V563z"/>
	<path d="M788,559.8v6.3h-1.6v-6.3H788z"/>
	<path d="M793.4,565h-2.7l-0.4,1.1h-1.7l2.7-6.3h1.7l2.6,6.3h-1.8L793.4,565z M792.9,563.7l-0.9-2.3l-0.9,2.3H792.9z"/>
</g>
<g>
	<path d="M73.2,333.1v1.3h-3.3v1.2h3v1.3l-3,0v1.2h3.4v1.3h-5.1v-6.3H73.2z"/>
	<path d="M81,340.2c-0.5,0.4-1.2,0.7-1.8,0.7c-0.9,0-1.6-0.5-2-1.4c-1.9-0.1-3.3-1.4-3.3-3.2c0-1.8,1.5-3.2,3.4-3.2s3.4,1.4,3.4,3.2
		c0,1.4-0.8,2.5-2.1,3c0.2,0.3,0.5,0.4,0.7,0.4c0.3,0,0.7-0.2,1.1-0.5L81,340.2z M77.3,338.1c0.9,0,1.7-0.8,1.7-1.8
		s-0.8-1.8-1.7-1.8s-1.7,0.8-1.7,1.8S76.4,338.1,77.3,338.1z"/>
	<path d="M84.4,338.1c0.7,0,1.2-0.5,1.2-1.3v-3.7h1.6v3.7c0,1.7-1.1,2.7-2.9,2.7c-1.8,0-2.9-1.1-2.9-2.7v-3.7h1.6v3.7
		C83.1,337.6,83.7,338.1,84.4,338.1z"/>
	<path d="M90,333.1v6.3h-1.6v-6.3H90z"/>
	<path d="M96.6,335.3c0,1.5-0.9,2.4-2.5,2.4h-1.1v1.7h-1.6v-6.3H94C95.7,333.1,96.6,333.9,96.6,335.3z M95,335.4c0-0.6-0.4-1-1.1-1
		h-1v1.9h1C94.6,336.4,95,336,95,335.4z"/>
	<path d="M101.1,338.3h-2.7l-0.4,1.1h-1.7l2.7-6.3h1.7l2.6,6.3h-1.8L101.1,338.3z M100.6,337l-0.9-2.3l-0.9,2.3H100.6z"/>
	<path d="M105.7,333.1l1.7,3.7l1.7-3.7h1.8v6.3h-1.5l0-4l-1.5,3.4h-1.1l-1.5-3.4v4h-1.5v-6.3H105.7z"/>
	<path d="M117,333.1v1.3h-3.3v1.2h3v1.3l-3,0v1.2h3.4v1.3H112v-6.3H117z"/>
	<path d="M119.6,333.1l2.9,3.8v-3.8h1.5v6.3h-1.4l-2.9-3.8v3.8h-1.5v-6.3H119.6z"/>
	<path d="M130,333.1v1.4h-1.9v5h-1.6v-5h-1.9v-1.4H130z"/>
	<path d="M136.8,336.3c0,1.8-1.5,3.2-3.4,3.2s-3.4-1.4-3.4-3.2c0-1.8,1.5-3.2,3.4-3.2S136.8,334.4,136.8,336.3z M131.7,336.3
		c0,1,0.8,1.8,1.7,1.8c0.9,0,1.7-0.8,1.7-1.8s-0.8-1.8-1.7-1.8S131.7,335.2,131.7,336.3z"/>
	<path d="M85.2,347.1c0.7,0,1.2-0.5,1.2-1.3v-3.7h1.6v3.7c0,1.7-1.1,2.7-2.9,2.7c-1.8,0-2.9-1.1-2.9-2.7v-3.7h1.6v3.7
		C83.9,346.6,84.5,347.1,85.2,347.1z"/>
	<path d="M93,348.4l-0.9-1.7h0h-1.2v1.7h-1.6v-6.3h2.8c1.7,0,2.6,0.8,2.6,2.2c0,1-0.4,1.7-1.1,2l1.3,2.1H93z M90.9,345.4h1.2
		c0.7,0,1.1-0.3,1.1-1c0-0.6-0.4-1-1.1-1h-1.2V345.4z"/>
	<path d="M101.1,343.7c0,0.7-0.4,1.2-1.1,1.4c0.8,0.2,1.3,0.8,1.3,1.6c0,1.1-0.9,1.8-2.4,1.8h-3.1v-6.3h3
		C100.2,342.1,101.1,342.7,101.1,343.7z M99.4,344c0-0.4-0.3-0.6-0.7-0.6h-1.3v1.2h1.3C99.1,344.6,99.4,344.4,99.4,344z M99.6,346.5
		c0-0.4-0.4-0.6-0.9-0.6h-1.3v1.3h1.3C99.2,347.1,99.6,346.9,99.6,346.5z"/>
	<path d="M106.4,347.3h-2.7l-0.4,1.1h-1.7l2.7-6.3h1.7l2.6,6.3h-1.8L106.4,347.3z M105.9,346l-0.9-2.3l-0.9,2.3H105.9z"/>
	<path d="M110.6,342.1l2.9,3.8v-3.8h1.5v6.3h-1.4l-2.9-3.8v3.8h-1.5v-6.3H110.6z"/>
	<path d="M122.6,345.3c0,1.8-1.5,3.2-3.4,3.2s-3.4-1.4-3.4-3.2c0-1.8,1.5-3.2,3.4-3.2S122.6,343.4,122.6,345.3z M117.5,345.3
		c0,1,0.8,1.8,1.7,1.8c0.9,0,1.7-0.8,1.7-1.8s-0.8-1.8-1.7-1.8S117.5,344.2,117.5,345.3z"/>
</g>
<g>
	<path d="M247.7,323.8v6.3H246v-6.3H247.7z"/>
	<path d="M251.2,326.8v1h-2.4v-1H251.2z"/>
	<path d="M256.8,328.1c0,1.2-1,2.1-2.6,2.1c-0.9,0-1.9-0.3-2.5-0.8l0.7-1.3c0.5,0.5,1.1,0.8,1.7,0.8c0.7,0,1.1-0.3,1.1-0.8
		c0-0.5-0.4-0.8-1.1-0.8H253v-0.9l1.5-1.4h-2.4l0-1.3h4.4v1l-1.7,1.6l0.3,0C256.1,326.5,256.8,327.2,256.8,328.1z"/>
	<path d="M220.6,332.8v1.1l-3.3,3.9h3.4v1.3h-5.6V338l3.3-3.9h-3.2v-1.3H220.6z"/>
	<path d="M228,335.9c0,1.8-1.5,3.2-3.4,3.2s-3.4-1.4-3.4-3.2c0-1.8,1.5-3.2,3.4-3.2S228,334.1,228,335.9z M222.8,336
		c0,1,0.8,1.8,1.7,1.8c0.9,0,1.7-0.8,1.7-1.8s-0.8-1.8-1.7-1.8S222.8,334.9,222.8,336z"/>
	<path d="M230.2,332.8l2.9,3.8v-3.8h1.5v6.3h-1.4l-2.9-3.8v3.8h-1.5v-6.3H230.2z"/>
	<path d="M240.1,338h-2.7l-0.4,1.1h-1.7l2.7-6.3h1.7l2.6,6.3h-1.8L240.1,338z M239.6,336.7l-0.9-2.3l-0.9,2.3H239.6z"/>
	<path d="M251.6,335.9c0,1.9-1.4,3.2-3.4,3.2h-2.7v-6.3h2.7C250.2,332.8,251.6,334.1,251.6,335.9z M249.9,336c0-1.1-0.7-1.8-1.7-1.8
		h-1v3.6h1.1C249.2,337.8,249.9,337,249.9,336z"/>
	<path d="M257.4,332.8v1.3H254v1.2h3v1.3l-3,0v1.2h3.4v1.3h-5.1v-6.3H257.4z"/>
	<path d="M265.4,335.9h1.4v2.5c-0.7,0.5-1.7,0.8-2.6,0.8c-1.9,0-3.4-1.4-3.4-3.2c0-1.8,1.5-3.2,3.5-3.2c0.9,0,1.9,0.4,2.6,0.9
		l-0.9,1.2c-0.5-0.4-1.1-0.7-1.7-0.7c-1,0-1.8,0.8-1.8,1.8c0,1,0.8,1.8,1.8,1.8c0.3,0,0.7-0.1,1.1-0.3V335.9z"/>
	<path d="M271.7,339.1l-0.9-1.7h0h-1.2v1.7h-1.6v-6.3h2.8c1.7,0,2.6,0.8,2.6,2.2c0,1-0.4,1.7-1.1,2l1.3,2.1H271.7z M269.5,336h1.2
		c0.7,0,1.1-0.3,1.1-1c0-0.6-0.4-1-1.1-1h-1.2V336z"/>
	<path d="M278.6,338h-2.7l-0.4,1.1h-1.7l2.7-6.3h1.7l2.6,6.3H279L278.6,338z M278.1,336.7l-0.9-2.3l-0.9,2.3H278.1z"/>
	<path d="M282.8,332.8l2.9,3.8v-3.8h1.5v6.3h-1.4l-2.9-3.8v3.8h-1.5v-6.3H282.8z"/>
	<path d="M227.9,341.8v6.3h-1.6v-6.3H227.9z"/>
	<path d="M230.6,341.8l2.9,3.8v-3.8h1.5v6.3h-1.4l-2.9-3.8v3.8h-1.5v-6.3H230.6z"/>
	<path d="M242.3,344.9c0,1.9-1.4,3.2-3.4,3.2h-2.7v-6.3h2.7C240.9,341.8,242.3,343.1,242.3,344.9z M240.6,345c0-1.1-0.7-1.8-1.7-1.8
		h-1v3.6h1.1C239.9,346.8,240.6,346,240.6,345z"/>
	<path d="M245.9,346.8c0.7,0,1.2-0.5,1.2-1.3v-3.7h1.6v3.7c0,1.7-1.1,2.7-2.9,2.7c-1.8,0-2.9-1.1-2.9-2.7v-3.7h1.6v3.7
		C244.6,346.3,245.2,346.8,245.9,346.8z"/>
	<path d="M252.2,343.1c-0.4,0-0.7,0.1-0.7,0.4c0,1,3.3,0.5,3.3,2.7c0,1.3-1.1,1.9-2.5,1.9c-1.1,0-2.2-0.4-2.9-1l0.6-1.3
		c0.6,0.6,1.6,1,2.3,1c0.5,0,0.8-0.2,0.8-0.5c0-1.1-3.3-0.4-3.3-2.7c0-1.2,1-1.9,2.5-1.9c0.9,0,1.9,0.3,2.5,0.7l-0.6,1.3
		C253.6,343.4,252.8,343.1,252.2,343.1z"/>
	<path d="M260.6,341.8v1.4h-1.9v5h-1.6v-5h-1.9v-1.4H260.6z"/>
	<path d="M265.1,348.1l-0.9-1.7h0h-1.2v1.7h-1.6v-6.3h2.8c1.7,0,2.6,0.8,2.6,2.2c0,1-0.4,1.7-1.1,2l1.3,2.1H265.1z M262.9,345h1.2
		c0.7,0,1.1-0.3,1.1-1c0-0.6-0.4-1-1.1-1h-1.2V345z"/>
	<path d="M269.4,341.8v6.3h-1.6v-6.3H269.4z"/>
	<path d="M274.9,347h-2.7l-0.4,1.1H270l2.7-6.3h1.7l2.6,6.3h-1.8L274.9,347z M274.4,345.7l-0.9-2.3l-0.9,2.3H274.4z"/>
</g>
<g>
	<path d="M379.1,331.4c0,1.8-1.5,3.2-3.4,3.2s-3.4-1.4-3.4-3.2c0-1.8,1.5-3.2,3.4-3.2S379.1,329.6,379.1,331.4z M374,331.5
		c0,1,0.8,1.8,1.7,1.8c0.9,0,1.7-0.8,1.7-1.8s-0.8-1.8-1.7-1.8S374,330.4,374,331.5z"/>
	<path d="M384.6,328.3v1.4h-1.9v5H381v-5h-1.9v-1.4H384.6z"/>
	<path d="M389,334.6l-0.9-1.7h0h-1.2v1.7h-1.6v-6.3h2.8c1.7,0,2.6,0.8,2.6,2.2c0,1-0.4,1.7-1.1,2l1.3,2.1H389z M386.9,331.5h1.2
		c0.7,0,1.1-0.3,1.1-1c0-0.6-0.4-1-1.1-1h-1.2V331.5z"/>
	<path d="M398.2,331.4c0,1.8-1.5,3.2-3.4,3.2s-3.4-1.4-3.4-3.2c0-1.8,1.5-3.2,3.4-3.2S398.2,329.6,398.2,331.4z M393,331.5
		c0,1,0.8,1.8,1.7,1.8c0.9,0,1.7-0.8,1.7-1.8s-0.8-1.8-1.7-1.8S393,330.4,393,331.5z"/>
	<path d="M401.3,329.6c-0.4,0-0.7,0.1-0.7,0.4c0,1,3.3,0.5,3.3,2.7c0,1.3-1.1,1.9-2.5,1.9c-1.1,0-2.2-0.4-2.9-1l0.6-1.3
		c0.6,0.6,1.6,1,2.3,1c0.5,0,0.8-0.2,0.8-0.5c0-1.1-3.3-0.4-3.3-2.7c0-1.2,1-1.9,2.5-1.9c0.9,0,1.9,0.3,2.5,0.7l-0.6,1.3
		C402.7,329.9,401.8,329.6,401.3,329.6z"/>
	<path d="M379.8,337.3l0,1.3h-3.1v1.4h2.8v1.3h-2.8v2.3h-1.6v-6.3H379.8z"/>
	<path d="M382.2,337.3v6.3h-1.6v-6.3H382.2z"/>
	<path d="M384.9,337.3l2.9,3.8v-3.8h1.5v6.3h-1.4l-2.9-3.8v3.8h-1.5v-6.3H384.9z"/>
	<path d="M395.5,337.3v1.3h-3.3v1.2h3v1.3l-3,0v1.2h3.4v1.3h-5.1v-6.3H395.5z"/>
	<path d="M398.9,338.6c-0.4,0-0.7,0.1-0.7,0.4c0,1,3.3,0.5,3.3,2.7c0,1.3-1.1,1.9-2.5,1.9c-1.1,0-2.2-0.4-2.9-1l0.6-1.3
		c0.6,0.6,1.6,1,2.3,1c0.5,0,0.8-0.2,0.8-0.5c0-1.1-3.3-0.4-3.3-2.7c0-1.2,1-1.9,2.5-1.9c0.9,0,1.9,0.3,2.5,0.7l-0.6,1.3
		C400.3,338.9,399.4,338.6,398.9,338.6z"/>
</g>
<g>
	<path d="M632.9,312.9c-0.4,0-0.7,0.1-0.7,0.4c0,1,3.3,0.5,3.3,2.7c0,1.3-1.1,1.9-2.5,1.9c-1.1,0-2.2-0.4-2.9-1l0.6-1.3
		c0.6,0.6,1.6,1,2.3,1c0.5,0,0.8-0.2,0.8-0.5c0-1.1-3.3-0.4-3.3-2.7c0-1.2,1-1.9,2.5-1.9c0.9,0,1.9,0.3,2.5,0.7l-0.6,1.3
		C634.3,313.2,633.4,312.9,632.9,312.9z"/>
	<path d="M641.4,311.6v1.3h-3.3v1.2h3v1.3l-3,0v1.2h3.4v1.3h-5.1v-6.3H641.4z"/>
	<path d="M646.3,317.9l-0.9-1.7h0h-1.2v1.7h-1.6v-6.3h2.8c1.7,0,2.6,0.8,2.6,2.2c0,1-0.4,1.7-1.1,2l1.3,2.1H646.3z M644.1,314.9h1.2
		c0.7,0,1.1-0.3,1.1-1c0-0.6-0.4-1-1.1-1h-1.2V314.9z"/>
	<path d="M650.1,311.6l1.6,4.6l1.6-4.6h1.7l-2.5,6.3h-1.7l-2.4-6.3H650.1z"/>
	<path d="M657.2,311.6v6.3h-1.6v-6.3H657.2z"/>
	<path d="M661.4,313c-1,0-1.7,0.8-1.7,1.8c0,1,0.7,1.8,1.7,1.8c0.5,0,1.1-0.3,1.6-0.7l1,1c-0.7,0.7-1.7,1.2-2.6,1.2
		c-1.9,0-3.3-1.4-3.3-3.2c0-1.8,1.4-3.2,3.4-3.2c0.9,0,1.9,0.4,2.5,1.1l-1,1.1C662.6,313.3,662,313,661.4,313z"/>
	<path d="M666.3,311.6v6.3h-1.6v-6.3H666.3z"/>
	<path d="M673.9,314.8c0,1.8-1.5,3.2-3.4,3.2c-2,0-3.4-1.4-3.4-3.2c0-1.8,1.5-3.2,3.4-3.2C672.5,311.6,673.9,312.9,673.9,314.8z
		 M668.8,314.8c0,1,0.8,1.8,1.7,1.8c0.9,0,1.7-0.8,1.7-1.8s-0.8-1.8-1.7-1.8S668.8,313.8,668.8,314.8z"/>
	<path d="M677.1,312.9c-0.4,0-0.7,0.1-0.7,0.4c0,1,3.3,0.5,3.3,2.7c0,1.3-1.1,1.9-2.5,1.9c-1.1,0-2.2-0.4-2.9-1l0.6-1.3
		c0.6,0.6,1.6,1,2.3,1c0.5,0,0.8-0.2,0.8-0.5c0-1.1-3.3-0.4-3.3-2.7c0-1.2,1-1.9,2.5-1.9c0.9,0,1.9,0.3,2.5,0.7l-0.6,1.3
		C678.4,313.2,677.6,312.9,677.1,312.9z"/>
	<path d="M611.4,322c-1,0-1.7,0.8-1.7,1.8c0,1,0.7,1.8,1.7,1.8c0.5,0,1.1-0.3,1.6-0.7l1,1c-0.7,0.7-1.7,1.2-2.6,1.2
		c-1.9,0-3.3-1.4-3.3-3.2c0-1.8,1.4-3.2,3.4-3.2c0.9,0,1.9,0.4,2.5,1.1l-1,1.1C612.6,322.3,612,322,611.4,322z"/>
	<path d="M620.9,323.8c0,1.8-1.5,3.2-3.4,3.2s-3.4-1.4-3.4-3.2c0-1.8,1.5-3.2,3.4-3.2S620.9,321.9,620.9,323.8z M615.8,323.8
		c0,1,0.8,1.8,1.7,1.8c0.9,0,1.7-0.8,1.7-1.8s-0.8-1.8-1.7-1.8S615.8,322.8,615.8,323.8z"/>
	<path d="M623.6,320.6l1.7,3.7l1.7-3.7h1.8v6.3h-1.5l0-4l-1.5,3.4h-1.1l-1.5-3.4v4h-1.5v-6.3H623.6z"/>
	<path d="M635.2,322.8c0,1.5-0.9,2.4-2.5,2.4h-1.1v1.7h-1.6v-6.3h2.8C634.3,320.6,635.2,321.4,635.2,322.8z M633.7,322.9
		c0-0.6-0.4-1-1.1-1h-1v1.9h1C633.3,323.9,633.7,323.5,633.7,322.9z"/>
	<path d="M637.7,320.6v4.9h2.7v1.4h-4.3v-6.3H637.7z"/>
	<path d="M646.1,320.6v1.3h-3.3v1.2h3v1.3l-3,0v1.2h3.4v1.3h-5.1v-6.3H646.1z"/>
	<path d="M649,320.6l1.7,3.7l1.7-3.7h1.8v6.3h-1.5l0-4l-1.5,3.4h-1.1l-1.5-3.4v4h-1.5v-6.3H649z"/>
	<path d="M660.3,320.6v1.3H657v1.2h3v1.3l-3,0v1.2h3.4v1.3h-5.1v-6.3H660.3z"/>
	<path d="M662.9,320.6l2.9,3.8v-3.8h1.5v6.3h-1.4l-2.9-3.8v3.8h-1.5v-6.3H662.9z"/>
	<path d="M673.4,320.6v1.4h-1.9v5h-1.6v-5H668v-1.4H673.4z"/>
	<path d="M677.6,325.8h-2.7l-0.4,1.1h-1.7l2.7-6.3h1.7l2.6,6.3H678L677.6,325.8z M677.1,324.6l-0.9-2.3l-0.9,2.3H677.1z"/>
	<path d="M684.1,326.9l-0.9-1.7h0H682v1.7h-1.6v-6.3h2.8c1.7,0,2.6,0.8,2.6,2.2c0,1-0.4,1.7-1.1,2l1.3,2.1H684.1z M682,323.9h1.2
		c0.7,0,1.1-0.3,1.1-1c0-0.6-0.4-1-1.1-1H682V323.9z"/>
	<path d="M688.5,320.6v6.3h-1.6v-6.3H688.5z"/>
	<path d="M696.1,323.8c0,1.8-1.5,3.2-3.4,3.2c-2,0-3.4-1.4-3.4-3.2c0-1.8,1.5-3.2,3.4-3.2C694.7,320.6,696.1,321.9,696.1,323.8z
		 M691,323.8c0,1,0.8,1.8,1.7,1.8c0.9,0,1.7-0.8,1.7-1.8s-0.8-1.8-1.7-1.8S691,322.8,691,323.8z"/>
	<path d="M699.3,321.9c-0.4,0-0.7,0.1-0.7,0.4c0,1,3.3,0.5,3.3,2.7c0,1.3-1.1,1.9-2.5,1.9c-1.1,0-2.2-0.4-2.9-1l0.6-1.3
		c0.6,0.6,1.6,1,2.3,1c0.5,0,0.8-0.2,0.8-0.5c0-1.1-3.3-0.4-3.3-2.7c0-1.2,1-1.9,2.5-1.9c0.9,0,1.9,0.3,2.5,0.7l-0.6,1.3
		C700.6,322.2,699.8,321.9,699.3,321.9z"/>
</g>
<g>
	<path d="M714.4,355c-0.4,0-0.7,0.1-0.7,0.4c0,1,3.3,0.5,3.3,2.7c0,1.3-1.1,1.9-2.5,1.9c-1.1,0-2.2-0.4-2.9-1l0.6-1.3
		c0.6,0.6,1.6,1,2.3,1c0.5,0,0.8-0.2,0.8-0.5c0-1.1-3.3-0.4-3.3-2.7c0-1.2,1-1.9,2.5-1.9c0.9,0,1.9,0.3,2.5,0.7l-0.6,1.3
		C715.7,355.3,714.9,355,714.4,355z"/>
	<path d="M722.9,353.7v1.3h-3.3v1.2h3v1.3l-3,0v1.2h3.4v1.3h-5.1v-6.3H722.9z"/>
	<path d="M727.7,360.1l-0.9-1.7h0h-1.2v1.7H724v-6.3h2.8c1.7,0,2.6,0.8,2.6,2.2c0,1-0.4,1.7-1.1,2l1.3,2.1H727.7z M725.6,357h1.2
		c0.7,0,1.1-0.3,1.1-1c0-0.6-0.4-1-1.1-1h-1.2V357z"/>
	<path d="M731.6,353.7l1.6,4.6l1.6-4.6h1.7l-2.5,6.3h-1.7l-2.4-6.3H731.6z"/>
	<path d="M738.7,353.7v6.3H737v-6.3H738.7z"/>
	<path d="M742.9,355.1c-1,0-1.7,0.8-1.7,1.8c0,1,0.7,1.8,1.7,1.8c0.5,0,1.1-0.3,1.6-0.7l1,1c-0.7,0.7-1.7,1.2-2.6,1.2
		c-1.9,0-3.3-1.4-3.3-3.2c0-1.8,1.4-3.2,3.4-3.2c0.9,0,1.9,0.4,2.5,1.1l-1,1.1C744,355.4,743.4,355.1,742.9,355.1z"/>
	<path d="M747.8,353.7v6.3h-1.6v-6.3H747.8z"/>
	<path d="M755.4,356.9c0,1.8-1.5,3.2-3.4,3.2c-2,0-3.4-1.4-3.4-3.2c0-1.8,1.5-3.2,3.4-3.2C753.9,353.7,755.4,355.1,755.4,356.9z
		 M750.3,356.9c0,1,0.8,1.8,1.7,1.8c0.9,0,1.7-0.8,1.7-1.8s-0.8-1.8-1.7-1.8S750.3,355.9,750.3,356.9z"/>
	<path d="M758.5,355c-0.4,0-0.7,0.1-0.7,0.4c0,1,3.3,0.5,3.3,2.7c0,1.3-1.1,1.9-2.5,1.9c-1.1,0-2.2-0.4-2.9-1l0.6-1.3
		c0.6,0.6,1.6,1,2.3,1c0.5,0,0.8-0.2,0.8-0.5c0-1.1-3.3-0.4-3.3-2.7c0-1.2,1-1.9,2.5-1.9c0.9,0,1.9,0.3,2.5,0.7l-0.6,1.3
		C759.9,355.3,759,355,758.5,355z"/>
	<path d="M713.1,365.8h1.4v2.5c-0.7,0.5-1.7,0.8-2.6,0.8c-1.9,0-3.4-1.4-3.4-3.2c0-1.8,1.5-3.2,3.5-3.2c0.9,0,1.9,0.4,2.6,0.9
		l-0.9,1.2c-0.5-0.4-1.1-0.7-1.7-0.7c-1,0-1.8,0.8-1.8,1.8c0,1,0.8,1.8,1.8,1.8c0.3,0,0.7-0.1,1.1-0.3V365.8z"/>
	<path d="M720.5,362.7v1.3h-3.3v1.2h3v1.3l-3,0v1.2h3.4v1.3h-5.1v-6.3H720.5z"/>
	<path d="M723.1,362.7l2.9,3.8v-3.8h1.5v6.3H726l-2.9-3.8v3.8h-1.5v-6.3H723.1z"/>
	<path d="M733.7,362.7v1.3h-3.3v1.2h3v1.3l-3,0v1.2h3.4v1.3h-5.1v-6.3H733.7z"/>
	<path d="M738.6,369.1l-0.9-1.7h0h-1.2v1.7h-1.6v-6.3h2.8c1.7,0,2.6,0.8,2.6,2.2c0,1-0.4,1.7-1.1,2l1.3,2.1H738.6z M736.4,366h1.2
		c0.7,0,1.1-0.3,1.1-1c0-0.6-0.4-1-1.1-1h-1.2V366z"/>
	<path d="M745.5,367.9h-2.7l-0.4,1.1h-1.7l2.7-6.3h1.7l2.6,6.3h-1.8L745.5,367.9z M745,366.7l-0.9-2.3l-0.9,2.3H745z"/>
	<path d="M749.9,362.7v4.9h2.7v1.4h-4.3v-6.3H749.9z"/>
	<path d="M758.3,362.7v1.3H755v1.2h3v1.3l-3,0v1.2h3.4v1.3h-5.1v-6.3H758.3z"/>
	<path d="M761.7,364c-0.4,0-0.7,0.1-0.7,0.4c0,1,3.3,0.5,3.3,2.7c0,1.3-1.1,1.9-2.5,1.9c-1.1,0-2.2-0.4-2.9-1l0.6-1.3
		c0.6,0.6,1.6,1,2.3,1c0.5,0,0.8-0.2,0.8-0.5c0-1.1-3.3-0.4-3.3-2.7c0-1.2,1-1.9,2.5-1.9c0.9,0,1.9,0.3,2.5,0.7l-0.6,1.3
		C763.1,364.3,762.2,364,761.7,364z"/>
</g>
<g>
	<path d="M477.9,332.4h-2.3l-0.4,0.9h-1.4l2.3-5.3h1.4l2.2,5.3h-1.5L477.9,332.4z M477.5,331.3l-0.7-1.9l-0.7,1.9H477.5z
		 M477.2,327.5h-1l0.8-1.3l1.2,0.4L477.2,327.5z"/>
	<path d="M483.5,333.3l-0.8-1.5h0h-1v1.5h-1.4V328h2.4c1.4,0,2.2,0.7,2.2,1.9c0,0.8-0.3,1.4-1,1.7l1.1,1.7H483.5z M481.7,330.7h1
		c0.6,0,0.9-0.3,0.9-0.8c0-0.5-0.3-0.8-0.9-0.8h-1V330.7z"/>
	<path d="M490,328v1.1h-2.8v1h2.5v1.1l-2.5,0v1h2.9v1.1h-4.3V328H490z"/>
	<path d="M494.5,332.4h-2.3l-0.4,0.9h-1.4l2.3-5.3h1.4l2.2,5.3h-1.5L494.5,332.4z M494.1,331.3l-0.7-1.9l-0.7,1.9H494.1z"/>
	<path d="M477.6,341l-0.8-1.5h0h-1v1.5h-1.4v-5.3h2.4c1.4,0,2.2,0.7,2.2,1.9c0,0.8-0.3,1.4-1,1.7l1.1,1.7H477.6z M475.8,338.4h1
		c0.6,0,0.9-0.3,0.9-0.8c0-0.5-0.3-0.8-0.9-0.8h-1V338.4z"/>
	<path d="M484.1,335.6v1.1h-2.8v1h2.5v1.1l-2.5,0v1h2.9v1.1h-4.3v-5.3H484.1z"/>
	<path d="M487.6,336.8c-0.8,0-1.4,0.6-1.4,1.5c0,0.9,0.6,1.5,1.4,1.5c0.4,0,1-0.2,1.3-0.6l0.8,0.9c-0.6,0.6-1.4,1-2.2,1
		c-1.6,0-2.8-1.2-2.8-2.7c0-1.5,1.2-2.7,2.9-2.7c0.8,0,1.6,0.4,2.2,0.9l-0.8,1C488.6,337,488.1,336.8,487.6,336.8z"/>
	<path d="M493.6,341l-0.8-1.5h0h-1v1.5h-1.4v-5.3h2.4c1.4,0,2.2,0.7,2.2,1.9c0,0.8-0.3,1.4-1,1.7l1.1,1.7H493.6z M491.8,338.4h1
		c0.6,0,0.9-0.3,0.9-0.8c0-0.5-0.3-0.8-0.9-0.8h-1V338.4z"/>
	<path d="M500.1,335.6v1.1h-2.8v1h2.5v1.1l-2.5,0v1h2.9v1.1h-4.3v-5.3H500.1z"/>
	<path d="M504.6,340h-2.3l-0.4,0.9h-1.4l2.3-5.3h1.4l2.2,5.3H505L504.6,340z M504.2,339l-0.7-1.9l-0.7,1.9H504.2z"/>
	<path d="M510.5,335.6v1.2h-1.6v4.2h-1.4v-4.2h-1.6v-1.2H510.5z"/>
	<path d="M512.5,335.6v5.3h-1.4v-5.3H512.5z"/>
	<path d="M514.5,335.6l1.3,3.9l1.3-3.9h1.4l-2.1,5.3H515l-2.1-5.3H514.5z"/>
	<path d="M522.2,340h-2.3l-0.4,0.9h-1.4l2.3-5.3h1.4l2.2,5.3h-1.5L522.2,340z M521.8,339l-0.7-1.9l-0.7,1.9H521.8z"/>
	<path d="M477.8,345.9c0,1-0.6,1.5-1.7,1.5h-0.7v1.2h-1.1v-4.2h1.8C477.2,344.5,477.8,345,477.8,345.9z M476.7,345.9
		c0-0.4-0.3-0.6-0.7-0.6h-0.7v1.3h0.7C476.5,346.6,476.7,346.4,476.7,345.9z"/>
	<path d="M480.8,347.9H479l-0.3,0.7h-1.1l1.8-4.2h1.1l1.7,4.2h-1.2L480.8,347.9z M480.4,347l-0.6-1.5l-0.6,1.5H480.4z"/>
	<path d="M485.1,348.6l-0.6-1.2h0h-0.8v1.2h-1.1v-4.2h1.9c1.1,0,1.7,0.5,1.7,1.5c0,0.6-0.3,1.1-0.7,1.3l0.9,1.4H485.1z M483.7,346.6
		h0.8c0.4,0,0.7-0.2,0.7-0.6c0-0.4-0.3-0.6-0.7-0.6h-0.8V346.6z"/>
	<path d="M491.3,349.1c-0.3,0.3-0.8,0.5-1.2,0.5c-0.6,0-1.1-0.4-1.3-0.9c-1.2,0-2.2-0.9-2.2-2.1c0-1.2,1-2.1,2.2-2.1
		s2.2,0.9,2.2,2.1c0,0.9-0.5,1.7-1.4,2c0.1,0.2,0.3,0.3,0.5,0.3c0.2,0,0.5-0.1,0.7-0.3L491.3,349.1z M488.9,347.7
		c0.6,0,1.1-0.5,1.1-1.2c0-0.7-0.5-1.2-1.1-1.2c-0.6,0-1.1,0.5-1.1,1.2C487.7,347.2,488.3,347.7,488.9,347.7z"/>
	<path d="M493.5,347.7c0.5,0,0.8-0.3,0.8-0.9v-2.4h1.1v2.4c0,1.1-0.7,1.8-1.9,1.8c-1.2,0-1.9-0.7-1.9-1.8v-2.4h1.1v2.4
		C492.7,347.4,493.1,347.7,493.5,347.7z"/>
	<path d="M499.5,344.5v0.9h-2.2v0.8h2v0.9l-2,0v0.8h2.3v0.9h-3.3v-4.2H499.5z"/>
	<path d="M505.4,344.5v0.7l-2.2,2.6h2.2v0.9h-3.7v-0.7l2.2-2.6h-2.1v-0.9H505.4z"/>
	<path d="M510.2,346.5c0,1.2-1,2.1-2.2,2.1s-2.2-0.9-2.2-2.1c0-1.2,1-2.1,2.2-2.1S510.2,345.3,510.2,346.5z M506.8,346.5
		c0,0.7,0.5,1.2,1.1,1.2c0.6,0,1.1-0.5,1.1-1.2c0-0.7-0.5-1.2-1.1-1.2C507.4,345.3,506.8,345.9,506.8,346.5z"/>
	<path d="M511.7,344.5l1.9,2.5v-2.5h1v4.2h-0.9l-1.9-2.5v2.5h-1v-4.2H511.7z"/>
	<path d="M518.2,347.9h-1.8l-0.3,0.7H515l1.8-4.2h1.1l1.7,4.2h-1.2L518.2,347.9z M517.9,347l-0.6-1.5l-0.6,1.5H517.9z"/>
	<path d="M521.1,344.5v3.2h1.8v0.9H520v-4.2H521.1z"/>
</g>
<g>
	<path d="M82.7,184.3c-0.4,0-0.6,0.1-0.6,0.4c0,0.9,3,0.4,3,2.4c0,1.1-1,1.7-2.3,1.7c-0.9,0-1.9-0.3-2.6-0.9l0.6-1.1
		c0.6,0.5,1.4,0.8,2,0.8c0.4,0,0.7-0.2,0.7-0.5c0-1-3-0.4-3-2.4c0-1,0.9-1.7,2.2-1.7c0.8,0,1.7,0.3,2.2,0.6l-0.6,1.2
		C83.9,184.6,83.2,184.3,82.7,184.3z"/>
	<path d="M90.2,183.2v1.2h-3v1H90v1.2l-2.7,0v1.1h3v1.2h-4.5v-5.6H90.2z"/>
	<path d="M94.6,188.8l-0.8-1.6h0h-1.1v1.6h-1.5v-5.6h2.5c1.5,0,2.3,0.7,2.3,2c0,0.8-0.4,1.5-1,1.8l1.2,1.8H94.6z M92.7,186.1h1.1
		c0.6,0,0.9-0.3,0.9-0.9c0-0.6-0.3-0.8-0.9-0.8h-1.1V186.1z"/>
	<path d="M98,183.2l1.4,4.1l1.4-4.1h1.5l-2.2,5.6h-1.5l-2.2-5.6H98z"/>
	<path d="M104.3,183.2v5.6h-1.5v-5.6H104.3z"/>
	<path d="M108,184.4c-0.9,0-1.5,0.7-1.5,1.6c0,0.9,0.7,1.6,1.5,1.6c0.5,0,1-0.3,1.4-0.7l0.9,0.9c-0.6,0.6-1.5,1-2.3,1
		c-1.7,0-2.9-1.2-2.9-2.9c0-1.6,1.3-2.8,3-2.8c0.8,0,1.7,0.4,2.3,1l-0.8,1C109.1,184.7,108.5,184.4,108,184.4z"/>
	<path d="M112.4,183.2v5.6h-1.5v-5.6H112.4z"/>
	<path d="M119.2,186c0,1.6-1.3,2.9-3,2.9c-1.7,0-3-1.2-3-2.9c0-1.6,1.3-2.8,3-2.8C117.9,183.1,119.2,184.4,119.2,186z M114.6,186
		c0,0.9,0.7,1.6,1.5,1.6c0.8,0,1.5-0.7,1.5-1.6c0-0.9-0.7-1.6-1.5-1.6C115.3,184.4,114.6,185.1,114.6,186z"/>
	<path d="M122,184.3c-0.4,0-0.6,0.1-0.6,0.4c0,0.9,3,0.4,3,2.4c0,1.1-1,1.7-2.3,1.7c-0.9,0-1.9-0.3-2.6-0.9l0.6-1.1
		c0.6,0.5,1.4,0.8,2,0.8c0.4,0,0.7-0.2,0.7-0.5c0-1-3-0.4-3-2.4c0-1,0.9-1.7,2.2-1.7c0.8,0,1.7,0.3,2.2,0.6l-0.6,1.2
		C123.2,184.6,122.4,184.3,122,184.3z"/>
	<path d="M63.6,193.4c-0.9,0-1.5,0.7-1.5,1.6c0,0.9,0.7,1.6,1.5,1.6c0.5,0,1-0.3,1.4-0.7l0.9,0.9c-0.6,0.6-1.5,1-2.3,1
		c-1.7,0-2.9-1.2-2.9-2.9c0-1.6,1.3-2.8,3-2.8c0.8,0,1.7,0.4,2.3,1l-0.8,1C64.6,193.7,64.1,193.4,63.6,193.4z"/>
	<path d="M72.1,195c0,1.6-1.3,2.9-3,2.9c-1.7,0-3-1.2-3-2.9c0-1.6,1.3-2.8,3-2.8C70.8,192.1,72.1,193.4,72.1,195z M67.5,195
		c0,0.9,0.7,1.6,1.5,1.6c0.8,0,1.5-0.7,1.5-1.6c0-0.9-0.7-1.6-1.5-1.6C68.2,193.4,67.5,194.1,67.5,195z"/>
	<path d="M74.4,192.2l1.5,3.3l1.5-3.3H79v5.6h-1.3l0-3.5l-1.3,3h-1l-1.3-3v3.5h-1.3v-5.6H74.4z"/>
	<path d="M84.8,194.1c0,1.3-0.8,2.1-2.3,2.1h-1v1.6h-1.5v-5.6h2.5C84,192.2,84.8,192.9,84.8,194.1z M83.4,194.2
		c0-0.6-0.3-0.8-0.9-0.8h-0.9v1.7h0.9C83,195.1,83.4,194.8,83.4,194.2z"/>
	<path d="M87,192.2v4.4h2.4v1.2h-3.8v-5.6H87z"/>
	<path d="M94.4,192.2v1.2h-3v1h2.7v1.2l-2.7,0v1.1h3v1.2H90v-5.6H94.4z"/>
	<path d="M97,192.2l1.5,3.3l1.5-3.3h1.6v5.6h-1.3l0-3.5l-1.3,3h-1l-1.3-3v3.5h-1.3v-5.6H97z"/>
	<path d="M107.1,192.2v1.2h-3v1h2.7v1.2l-2.7,0v1.1h3v1.2h-4.5v-5.6H107.1z"/>
	<path d="M109.4,192.2l2.5,3.4v-3.4h1.4v5.6H112l-2.5-3.4v3.4h-1.4v-5.6H109.4z"/>
	<path d="M118.7,192.2v1.2H117v4.4h-1.5v-4.4h-1.7v-1.2H118.7z"/>
	<path d="M122.4,196.8H120l-0.4,1h-1.5l2.4-5.6h1.5l2.4,5.6h-1.6L122.4,196.8z M122,195.7l-0.8-2l-0.8,2H122z"/>
	<path d="M128.2,197.8l-0.8-1.6h0h-1.1v1.6h-1.5v-5.6h2.5c1.5,0,2.3,0.7,2.3,2c0,0.8-0.4,1.5-1,1.8l1.2,1.8H128.2z M126.3,195.1h1.1
		c0.6,0,0.9-0.3,0.9-0.9c0-0.6-0.3-0.8-0.9-0.8h-1.1V195.1z"/>
	<path d="M132.1,192.2v5.6h-1.5v-5.6H132.1z"/>
	<path d="M138.9,195c0,1.6-1.3,2.9-3,2.9c-1.7,0-3-1.2-3-2.9c0-1.6,1.3-2.8,3-2.8C137.6,192.1,138.9,193.4,138.9,195z M134.3,195
		c0,0.9,0.7,1.6,1.5,1.6c0.8,0,1.5-0.7,1.5-1.6c0-0.9-0.7-1.6-1.5-1.6C135,193.4,134.3,194.1,134.3,195z"/>
	<path d="M141.7,193.3c-0.4,0-0.6,0.1-0.6,0.4c0,0.9,3,0.4,3,2.4c0,1.1-1,1.7-2.3,1.7c-0.9,0-1.9-0.3-2.6-0.9l0.6-1.1
		c0.6,0.5,1.4,0.8,2,0.8c0.4,0,0.7-0.2,0.7-0.5c0-1-3-0.4-3-2.4c0-1,0.9-1.7,2.2-1.7c0.8,0,1.7,0.3,2.2,0.6l-0.6,1.2
		C142.9,193.6,142.1,193.3,141.7,193.3z"/>
</g>
<g>
	<path d="M358.1,150.9v6.3h-1.6v-6.3H358.1z"/>
	<path d="M361.6,153.9v1h-2.4v-1H361.6z"/>
	<path d="M367.2,155.2c0,1.2-1,2.1-2.6,2.1c-0.9,0-1.9-0.3-2.5-0.8l0.7-1.3c0.5,0.5,1.1,0.8,1.7,0.8c0.7,0,1.1-0.3,1.1-0.8
		c0-0.5-0.4-0.8-1.1-0.8h-1.1v-0.9l1.5-1.4h-2.4l0-1.3h4.4v1l-1.7,1.6l0.3,0C366.5,153.6,367.2,154.2,367.2,155.2z"/>
	<path d="M304,159.9v1.1l-3.3,3.9h3.4v1.3h-5.6v-1.1l3.3-3.9h-3.2v-1.3H304z"/>
	<path d="M311.3,163c0,1.8-1.5,3.2-3.4,3.2s-3.4-1.4-3.4-3.2c0-1.8,1.5-3.2,3.4-3.2S311.3,161.2,311.3,163z M306.2,163
		c0,1,0.8,1.8,1.7,1.8c0.9,0,1.7-0.8,1.7-1.8s-0.8-1.8-1.7-1.8S306.2,162,306.2,163z"/>
	<path d="M313.6,159.9l2.9,3.8v-3.8h1.5v6.3h-1.4l-2.9-3.8v3.8h-1.5v-6.3H313.6z"/>
	<path d="M323.4,165h-2.7l-0.4,1.1h-1.7l2.7-6.3h1.7l2.6,6.3h-1.8L323.4,165z M323,163.8l-0.9-2.3l-0.9,2.3H323z"/>
	<path d="M335,163c0,1.9-1.4,3.2-3.4,3.2h-2.7v-6.3h2.7C333.6,159.9,335,161.1,335,163z M333.3,163c0-1.1-0.7-1.8-1.7-1.8h-1v3.6
		h1.1C332.6,164.8,333.3,164.1,333.3,163z"/>
	<path d="M340.8,159.9v1.3h-3.3v1.2h3v1.3l-3,0v1.2h3.4v1.3h-5.1v-6.3H340.8z"/>
	<path d="M348.7,162.9h1.4v2.5c-0.7,0.5-1.7,0.8-2.6,0.8c-1.9,0-3.4-1.4-3.4-3.2c0-1.8,1.5-3.2,3.5-3.2c0.9,0,1.9,0.4,2.6,0.9
		l-0.9,1.2c-0.5-0.4-1.1-0.7-1.7-0.7c-1,0-1.8,0.8-1.8,1.8c0,1,0.8,1.8,1.8,1.8c0.3,0,0.7-0.1,1.1-0.3V162.9z"/>
	<path d="M355,166.2l-0.9-1.7h0h-1.2v1.7h-1.6v-6.3h2.8c1.7,0,2.6,0.8,2.6,2.2c0,1-0.4,1.7-1.1,2l1.3,2.1H355z M352.9,163.1h1.2
		c0.7,0,1.1-0.3,1.1-1c0-0.6-0.4-1-1.1-1h-1.2V163.1z"/>
	<path d="M362,165h-2.7l-0.4,1.1h-1.7l2.7-6.3h1.7l2.6,6.3h-1.8L362,165z M361.5,163.8l-0.9-2.3l-0.9,2.3H361.5z"/>
	<path d="M366.2,159.9l2.9,3.8v-3.8h1.5v6.3h-1.4l-2.9-3.8v3.8h-1.5v-6.3H366.2z"/>
	<path d="M376.1,159.9v6.3h-1.6v-6.3H376.1z"/>
	<path d="M378.8,159.9l2.9,3.8v-3.8h1.5v6.3h-1.4l-2.9-3.8v3.8h-1.5v-6.3H378.8z"/>
	<path d="M390.5,163c0,1.9-1.4,3.2-3.4,3.2h-2.7v-6.3h2.7C389.2,159.9,390.5,161.1,390.5,163z M388.8,163c0-1.1-0.7-1.8-1.7-1.8h-1
		v3.6h1.1C388.2,164.8,388.8,164.1,388.8,163z"/>
	<path d="M394.2,164.8c0.7,0,1.2-0.5,1.2-1.3v-3.7h1.6v3.7c0,1.7-1.1,2.7-2.9,2.7c-1.8,0-2.9-1.1-2.9-2.7v-3.7h1.6v3.7
		C392.9,164.3,393.4,164.8,394.2,164.8z"/>
	<path d="M400.5,161.1c-0.4,0-0.7,0.1-0.7,0.4c0,1,3.3,0.5,3.3,2.7c0,1.3-1.1,1.9-2.5,1.9c-1.1,0-2.2-0.4-2.9-1l0.6-1.3
		c0.6,0.6,1.6,1,2.3,1c0.5,0,0.8-0.2,0.8-0.5c0-1.1-3.3-0.4-3.3-2.7c0-1.2,1-1.9,2.5-1.9c0.9,0,1.9,0.3,2.5,0.7l-0.6,1.3
		C401.8,161.4,401,161.1,400.5,161.1z"/>
	<path d="M408.8,159.9v1.4h-1.9v5h-1.6v-5h-1.9v-1.4H408.8z"/>
	<path d="M413.3,166.2l-0.9-1.7h0h-1.2v1.7h-1.6v-6.3h2.8c1.7,0,2.6,0.8,2.6,2.2c0,1-0.4,1.7-1.1,2l1.3,2.1H413.3z M411.1,163.1h1.2
		c0.7,0,1.1-0.3,1.1-1c0-0.6-0.4-1-1.1-1h-1.2V163.1z"/>
	<path d="M417.7,159.9v6.3H416v-6.3H417.7z"/>
	<path d="M423.1,165h-2.7l-0.4,1.1h-1.7l2.7-6.3h1.7l2.6,6.3h-1.8L423.1,165z M422.6,163.8l-0.9-2.3l-0.9,2.3H422.6z"/>
</g>
<g>
	<path d="M61.2,47.5c-0.5,0-0.8,0.2-0.8,0.5c0,1.2,3.4,0.5,3.3,2.8c0,1.2-1.1,1.9-2.5,1.9c-1,0-2.1-0.4-2.8-1l0.6-1.2
		c0.6,0.6,1.6,0.9,2.2,0.9c0.6,0,0.9-0.2,0.9-0.6c0-1.2-3.4-0.5-3.4-2.7c0-1.1,1-1.9,2.4-1.9c0.9,0,1.8,0.3,2.4,0.7l-0.5,1.2
		C62.5,47.7,61.7,47.5,61.2,47.5z"/>
	<path d="M67.5,51.4c0.8,0,1.4-0.5,1.4-1.5v-3.7h1.4V50c0,1.7-1.1,2.7-2.8,2.7c-1.7,0-2.9-1-2.9-2.7v-3.7H66V50
		C66,50.9,66.6,51.4,67.5,51.4z"/>
	<path d="M76.7,47.9c0,0.7-0.4,1.2-1.1,1.4c0.8,0.2,1.3,0.8,1.3,1.6c0,1.1-0.9,1.7-2.4,1.7h-3v-6.3h2.9
		C75.9,46.3,76.7,46.9,76.7,47.9z M75.3,48.1c0-0.4-0.3-0.7-0.9-0.7H73v1.4h1.4C74.9,48.8,75.3,48.6,75.3,48.1z M75.5,50.7
		c0-0.5-0.4-0.7-1.1-0.7H73v1.5h1.4C75.1,51.4,75.5,51.2,75.5,50.7z"/>
	<path d="M82.1,46.3v5.1h2.7v1.2h-4.1v-6.3H82.1z"/>
	<path d="M92,49.5c0,1.8-1.5,3.2-3.4,3.2c-1.9,0-3.4-1.4-3.4-3.2c0-1.8,1.5-3.2,3.4-3.2C90.5,46.3,92,47.6,92,49.5z M86.7,49.5
		c0,1.1,0.9,2,1.9,2s1.9-0.9,1.9-2c0-1.1-0.9-2-1.9-2C87.5,47.5,86.7,48.3,86.7,49.5z"/>
	<path d="M97.4,46.3v1.2h-1.9v5.1H94v-5.1h-1.9v-1.2H97.4z"/>
	<path d="M102.9,46.3v1.2h-3.4v1.4h3V50h-3v1.4h3.5v1.2h-4.9v-6.3H102.9z"/>
	<path d="M111.4,49.4c0,2.1-0.9,3.2-2.4,3.2c-1.6,0-2.4-1.1-2.4-3.2c0-2.1,0.9-3.2,2.4-3.2C110.5,46.3,111.4,47.4,111.4,49.4z
		 M107.9,49.4c0,1.5,0.3,2.2,1.1,2.2c0.7,0,1.1-0.7,1.1-2.2c0-1.5-0.3-2.2-1.1-2.2C108.2,47.3,107.9,47.9,107.9,49.4z"/>
	<path d="M115.3,46.3v6.3h-1.4v-5.1h-1.3v-1.2H115.3z"/>
	<path d="M126.6,49.5c0,1.9-1.4,3.2-3.4,3.2h-2.6v-6.3h2.7C125.3,46.3,126.6,47.6,126.6,49.5z M125.2,49.5c0-1.2-0.8-2-1.9-2h-1.2
		v3.9h1.3C124.4,51.4,125.2,50.6,125.2,49.5z"/>
	<path d="M132.4,46.3v1.2H129v1.4h3V50h-3v1.4h3.5v1.2h-4.9v-6.3H132.4z"/>
	<path d="M135,46.3v5.1h2.7v1.2h-4.1v-6.3H135z"/>
	<path d="M145.8,46.3l0,1.2h-3.1V49h2.8v1.2h-2.8v2.4h-1.4v-6.3H145.8z"/>
	<path d="M149.3,51.4c0.8,0,1.4-0.5,1.4-1.5v-3.7h1.4V50c0,1.7-1.1,2.7-2.8,2.7c-1.7,0-2.9-1-2.9-2.7v-3.7h1.4V50
		C147.9,50.9,148.5,51.4,149.3,51.4z"/>
	<path d="M154.7,46.3l3.1,4.1v-4.1h1.4v6.3h-1.3l-3.1-4v4h-1.4v-6.3H154.7z"/>
	<path d="M166.5,49.5c0,1.9-1.4,3.2-3.4,3.2h-2.6v-6.3h2.7C165.2,46.3,166.5,47.6,166.5,49.5z M165.1,49.5c0-1.2-0.8-2-1.9-2H162
		v3.9h1.3C164.3,51.4,165.1,50.6,165.1,49.5z"/>
	<path d="M173.6,49.5c0,1.8-1.5,3.2-3.4,3.2c-1.9,0-3.4-1.4-3.4-3.2c0-1.8,1.5-3.2,3.4-3.2C172.2,46.3,173.6,47.6,173.6,49.5z
		 M168.3,49.5c0,1.1,0.9,2,1.9,2s1.9-0.9,1.9-2c0-1.1-0.9-2-1.9-2C169.2,47.5,168.3,48.3,168.3,49.5z"/>
	<path d="M181.4,51.4h-2.9l-0.5,1.2h-1.5l2.7-6.3h1.5l2.7,6.3h-1.5L181.4,51.4z M180.9,50.2l-1-2.4l-1,2.4H180.9z"/>
	<path d="M188.1,49.4h1.2v2.4c-0.7,0.5-1.7,0.8-2.6,0.8c-1.9,0-3.4-1.4-3.4-3.2c0-1.8,1.5-3.2,3.4-3.2c0.9,0,1.9,0.4,2.5,0.9l-0.8,1
		c-0.5-0.4-1.1-0.7-1.7-0.7c-1.1,0-2,0.9-2,2c0,1.1,0.9,2,2,2c0.4,0,0.8-0.1,1.2-0.3V49.4z"/>
	<path d="M194.5,52.6l-1-1.8h-0.1H192v1.8h-1.4v-6.3h2.7c1.6,0,2.6,0.8,2.6,2.2c0,1-0.4,1.7-1.2,2l1.3,2.1H194.5z M192,49.6h1.3
		c0.8,0,1.2-0.4,1.2-1.1c0-0.7-0.5-1.1-1.2-1.1H192V49.6z"/>
	<path d="M199.4,44.7l-1.1,1h-1.1l1-1.5L199.4,44.7z M198.5,46.3v6.3h-1.4v-6.3H198.5z"/>
	<path d="M202.9,47.5c-1.1,0-1.9,0.8-1.9,1.9c0,1.1,0.8,1.9,1.9,1.9c0.6,0,1.2-0.3,1.6-0.7l0.8,0.9c-0.7,0.7-1.6,1.1-2.5,1.1
		c-1.9,0-3.3-1.4-3.3-3.2c0-1.8,1.4-3.2,3.4-3.2c0.9,0,1.9,0.4,2.5,1l-0.8,1C204.1,47.8,203.5,47.5,202.9,47.5z"/>
	<path d="M212.4,49.5c0,1.8-1.5,3.2-3.4,3.2c-1.9,0-3.4-1.4-3.4-3.2c0-1.8,1.5-3.2,3.4-3.2C210.9,46.3,212.4,47.6,212.4,49.5z
		 M207.1,49.5c0,1.1,0.9,2,1.9,2s1.9-0.9,1.9-2c0-1.1-0.9-2-1.9-2C208,47.5,207.1,48.3,207.1,49.5z"/>
	<path d="M214.7,46.3v5.1h2.7v1.2h-4.1v-6.3H214.7z"/>
	<path d="M222.5,51.4h-2.9l-0.5,1.2h-1.5l2.7-6.3h1.5l2.7,6.3H223L222.5,51.4z M222,50.2l-1-2.4l-1,2.4H222z"/>
	<path d="M228.9,46.3l-0.4,0.9c0.2,0.1,0.3,0.3,0.3,0.6c0,0.4-0.3,0.7-0.7,0.7c-0.4,0-0.7-0.3-0.7-0.7c0-0.2,0.1-0.4,0.2-0.6
		l0.6-0.9H228.9z M230.4,47.7c0,0.4-0.3,0.7-0.7,0.7c-0.4,0-0.7-0.3-0.7-0.7c0-0.2,0.1-0.4,0.2-0.6l0.6-0.9h0.7l-0.4,0.9
		C230.3,47.3,230.4,47.5,230.4,47.7z"/>
	<path d="M232.9,46.3v5.1h2.7v1.2h-4.1v-6.3H232.9z"/>
	<path d="M240.7,51.4h-2.9l-0.5,1.2h-1.5l2.7-6.3h1.5l2.7,6.3h-1.5L240.7,51.4z M240.2,50.2l-1-2.4l-1,2.4H240.2z"/>
	<path d="M245.5,47.5c-0.5,0-0.8,0.2-0.8,0.5c0,1.2,3.4,0.5,3.3,2.8c0,1.2-1.1,1.9-2.5,1.9c-1,0-2.1-0.4-2.8-1l0.6-1.2
		c0.6,0.6,1.6,0.9,2.2,0.9c0.6,0,0.9-0.2,0.9-0.6c0-1.2-3.4-0.5-3.4-2.7c0-1.1,1-1.9,2.4-1.9c0.9,0,1.8,0.3,2.4,0.7l-0.5,1.2
		C246.8,47.7,246,47.5,245.5,47.5z"/>
	<path d="M256.9,48.5c0,1.5-0.9,2.3-2.5,2.3h-1.3v1.8h-1.4v-6.3h2.7C256,46.3,256.9,47.1,256.9,48.5z M255.6,48.5
		c0-0.7-0.5-1.1-1.2-1.1h-1.2v2.1h1.2C255.1,49.6,255.6,49.3,255.6,48.5z"/>
	<path d="M261.5,51.4h-2.9l-0.5,1.2h-1.5l2.7-6.3h1.5l2.7,6.3H262L261.5,51.4z M261.1,50.2l-1-2.4l-1,2.4H261.1z"/>
	<path d="M265.6,46.3v5.1h2.7v1.2h-4.1v-6.3H265.6z"/>
	<path d="M270.8,46.3l1.8,3.9l1.8-3.9h1.6v6.3h-1.3v-4.2l-1.7,3.6h-0.9l-1.7-3.6v4.2h-1.3v-6.3H270.8z"/>
	<path d="M282.2,46.3v1.2h-3.4v1.4h3V50h-3v1.4h3.5v1.2h-4.9v-6.3H282.2z"/>
	<path d="M287.3,52.6l-1-1.8h-0.1h-1.3v1.8h-1.4v-6.3h2.7c1.6,0,2.6,0.8,2.6,2.2c0,1-0.4,1.7-1.2,2l1.3,2.1H287.3z M284.9,49.6h1.3
		c0.8,0,1.2-0.4,1.2-1.1c0-0.7-0.5-1.1-1.2-1.1h-1.3V49.6z"/>
	<path d="M294.1,51.4h-2.9l-0.5,1.2h-1.5l2.7-6.3h1.5l2.7,6.3h-1.5L294.1,51.4z M293.7,50.2l-1-2.4l-1,2.4H293.7z"/>
	<path d="M298.9,47.5c-0.5,0-0.8,0.2-0.8,0.5c0,1.2,3.4,0.5,3.3,2.8c0,1.2-1.1,1.9-2.5,1.9c-1,0-2.1-0.4-2.8-1l0.6-1.2
		c0.6,0.6,1.6,0.9,2.2,0.9c0.6,0,0.9-0.2,0.9-0.6c0-1.2-3.4-0.5-3.4-2.7c0-1.1,1-1.9,2.4-1.9c0.9,0,1.8,0.3,2.4,0.7l-0.5,1.2
		C300.2,47.7,299.4,47.5,298.9,47.5z"/>
	<path d="M303.5,47c0,0.2-0.1,0.4-0.2,0.6l-0.6,0.9h-0.7l0.4-0.9c-0.2-0.1-0.3-0.3-0.3-0.6c0-0.4,0.3-0.7,0.7-0.7
		C303.2,46.3,303.5,46.5,303.5,47z M305.1,47c0,0.2-0.1,0.4-0.2,0.6l-0.6,0.9h-0.7l0.4-0.9c-0.2-0.1-0.3-0.3-0.3-0.6
		c0-0.4,0.3-0.7,0.7-0.7C304.8,46.3,305.1,46.5,305.1,47z"/>
	<path d="M63.2,62.4h-2.9l-0.5,1.2h-1.5l2.7-6.3h1.5l2.7,6.3h-1.5L63.2,62.4z M62.7,61.2l-1-2.4l-1,2.4H62.7z M62.1,56.7H61l1-1.5
		l1.3,0.5L62.1,56.7z"/>
	<path d="M69.7,63.6l-1-1.8h-0.1h-1.3v1.8h-1.4v-6.3h2.7c1.6,0,2.6,0.8,2.6,2.2c0,1-0.4,1.7-1.2,2l1.3,2.1H69.7z M67.3,60.6h1.3
		c0.8,0,1.2-0.4,1.2-1.1c0-0.7-0.5-1.1-1.2-1.1h-1.3V60.6z"/>
	<path d="M77.1,57.3v1.2h-3.4v1.4h3V61h-3v1.4h3.5v1.2h-4.9v-6.3H77.1z"/>
	<path d="M82.5,62.4h-2.9l-0.5,1.2h-1.5l2.7-6.3h1.5l2.7,6.3H83L82.5,62.4z M82.1,61.2l-1-2.4l-1,2.4H82.1z"/>
	<path d="M90,59.6c1.5,0,2.4,0.8,2.4,1.9c0,1.3-1,2.2-2.5,2.2c-0.8,0-1.8-0.3-2.4-0.8l0.6-1.1c0.5,0.5,1.1,0.7,1.7,0.7
		c0.7,0,1.2-0.3,1.2-0.9c0-0.5-0.4-0.8-1.2-0.8c-0.4,0-1.3,0-1.7,0.1v-3.5h4.1v1.2h-2.8v1.1H90z"/>
	<path d="M96,58.3c-1.1,0-1.6,0.7-1.6,1.9c0.3-0.5,0.8-0.8,1.6-0.8c1.2,0,2,0.8,2,2c0,1.3-0.9,2.2-2.3,2.2c-1.6,0-2.6-1.2-2.6-3.1
		c0-2,1.1-3.3,2.8-3.3c0.7,0,1.4,0.2,2,0.5l-0.5,1C97,58.5,96.5,58.3,96,58.3z M94.6,61.5c0,0.5,0.3,1,1.1,1c0.6,0,1.1-0.4,1.1-1
		c0-0.6-0.4-1-1-1C95,60.5,94.6,61,94.6,61.5z"/>
	<path d="M100,63c0,0.4-0.3,0.7-0.7,0.7c-0.4,0-0.7-0.3-0.7-0.7c0-0.4,0.3-0.7,0.7-0.7C99.8,62.3,100,62.5,100,63z"/>
	<path d="M105.6,60.4c0,2.1-0.9,3.2-2.4,3.2c-1.6,0-2.4-1.1-2.4-3.2c0-2.1,0.9-3.2,2.4-3.2C104.8,57.3,105.6,58.4,105.6,60.4z
		 M102.1,60.4c0,1.5,0.3,2.2,1.1,2.2c0.7,0,1.1-0.7,1.1-2.2c0-1.5-0.3-2.2-1.1-2.2C102.5,58.3,102.1,58.9,102.1,60.4z"/>
	<path d="M111.2,60.4c0,2.1-0.9,3.2-2.4,3.2c-1.6,0-2.4-1.1-2.4-3.2c0-2.1,0.9-3.2,2.4-3.2C110.3,57.3,111.2,58.4,111.2,60.4z
		 M107.7,60.4c0,1.5,0.3,2.2,1.1,2.2c0.7,0,1.1-0.7,1.1-2.2c0-1.5-0.3-2.2-1.1-2.2C108,58.3,107.7,58.9,107.7,60.4z"/>
	<path d="M116.7,60.4c0,2.1-0.9,3.2-2.4,3.2c-1.6,0-2.4-1.1-2.4-3.2c0-2.1,0.9-3.2,2.4-3.2C115.9,57.3,116.7,58.4,116.7,60.4z
		 M113.2,60.4c0,1.5,0.3,2.2,1.1,2.2c0.7,0,1.1-0.7,1.1-2.2c0-1.5-0.3-2.2-1.1-2.2C113.6,58.3,113.2,58.9,113.2,60.4z"/>
	<path d="M122.3,60.4c0,2.1-0.9,3.2-2.4,3.2c-1.6,0-2.4-1.1-2.4-3.2c0-2.1,0.9-3.2,2.4-3.2C121.4,57.3,122.3,58.4,122.3,60.4z
		 M118.8,60.4c0,1.5,0.3,2.2,1.1,2.2c0.7,0,1.1-0.7,1.1-2.2c0-1.5-0.3-2.2-1.1-2.2C119.1,58.3,118.8,58.9,118.8,60.4z"/>
	<path d="M127.4,57.3v2.6h2.9v-2.6h1.4v6.3h-1.4v-2.5h-2.9v2.5H126v-6.3H127.4z"/>
	<path d="M137.3,62.4h-2.9l-0.5,1.2h-1.5l2.7-6.3h1.5l2.7,6.3h-1.5L137.3,62.4z M136.8,61.2l-1-2.4l-1,2.4H136.8z"/>
	<path d="M142.1,58.5c-0.5,0-0.8,0.2-0.8,0.5c0,1.2,3.4,0.5,3.3,2.8c0,1.2-1.1,1.9-2.5,1.9c-1,0-2.1-0.4-2.8-1l0.6-1.2
		c0.6,0.6,1.6,0.9,2.2,0.9c0.6,0,0.9-0.2,0.9-0.6c0-1.2-3.4-0.5-3.4-2.7c0-1.1,1-1.9,2.4-1.9c0.9,0,1.8,0.3,2.4,0.7l-0.5,1.2
		C143.4,58.7,142.6,58.5,142.1,58.5z"/>
	<path d="M150.5,60.4v0.9h-2.3v-0.9H150.5z"/>
	<path d="M159.6,59.5c0,1.5-0.9,2.3-2.5,2.3h-1.3v1.8h-1.4v-6.3h2.7C158.7,57.3,159.6,58.1,159.6,59.5z M158.2,59.5
		c0-0.7-0.4-1.1-1.2-1.1h-1.2v2.1h1.2C157.8,60.6,158.2,60.3,158.2,59.5z"/>
	<path d="M165.3,57.3v1.2h-3.4v1.4h3V61h-3v1.4h3.5v1.2h-4.9v-6.3H165.3z"/>
	<path d="M170.4,63.6l-1-1.8h-0.1h-1.3v1.8h-1.4v-6.3h2.7c1.6,0,2.6,0.8,2.6,2.2c0,1-0.4,1.7-1.2,2l1.3,2.1H170.4z M167.9,60.6h1.3
		c0.8,0,1.2-0.4,1.2-1.1c0-0.7-0.5-1.1-1.2-1.1h-1.3V60.6z"/>
	<path d="M176.6,61.1H175v1.5h-0.9v-1.5h-1.5v-0.9h1.5v-1.5h0.9v1.5h1.5V61.1z"/>
	<path d="M179,57.3v6.3h-1.4v-6.3H179z"/>
	<path d="M182,57.3l1.8,3.9l1.8-3.9h1.6v6.3h-1.3v-4.2l-1.7,3.6h-0.9l-1.7-3.6v4.2h-1.3v-6.3H182z"/>
	<path d="M193.4,57.3v1.2H190v1.4h3V61h-3v1.4h3.5v1.2h-4.9v-6.3H193.4z"/>
	<path d="M199.3,57.3v1.2h-1.9v5.1h-1.4v-5.1H194v-1.2H199.3z"/>
	<path d="M203.9,63.6l-1-1.8h-0.1h-1.3v1.8H200v-6.3h2.7c1.6,0,2.6,0.8,2.6,2.2c0,1-0.4,1.7-1.2,2l1.3,2.1H203.9z M201.5,60.6h1.3
		c0.8,0,1.2-0.4,1.2-1.1c0-0.7-0.5-1.1-1.2-1.1h-1.3V60.6z"/>
	<path d="M212.9,60.5c0,1.8-1.5,3.2-3.4,3.2c-1.9,0-3.4-1.4-3.4-3.2c0-1.8,1.5-3.2,3.4-3.2C211.4,57.3,212.9,58.6,212.9,60.5z
		 M207.6,60.5c0,1.1,0.9,2,1.9,2s1.9-0.9,1.9-2c0-1.1-0.9-2-1.9-2C208.4,58.5,207.6,59.3,207.6,60.5z"/>
	<path d="M220.9,61.6c0,1.2-1,2-2.5,2c-0.9,0-1.8-0.3-2.4-0.7l0.6-1.1c0.5,0.5,1.1,0.7,1.7,0.7c0.8,0,1.2-0.3,1.2-0.9
		c0-0.6-0.5-0.9-1.3-0.9h-1V60l1.6-1.5h-2.6v-1.2h4.3v0.9l-1.8,1.7l0.3,0C220.1,60,220.9,60.7,220.9,61.6z"/>
	<path d="M224.9,57.3v6.3h-1.4v-5.1h-1.3v-1.2H224.9z"/>
	<path d="M230.4,59.1c0-0.4-0.3-0.6-0.9-0.6c-0.5,0-1.2,0.3-1.8,0.8l-0.6-1.1c0.8-0.6,1.6-0.9,2.5-0.9c1.3,0,2.2,0.6,2.2,1.6
		c0,0.7-0.5,1.4-1.2,2.1l-1.5,1.4h2.9v1.2h-4.7v-1l2.3-2.4C230.1,59.8,230.4,59.4,230.4,59.1z"/>
	<path d="M235.9,59.1c0-0.4-0.3-0.6-0.9-0.6c-0.5,0-1.2,0.3-1.8,0.8l-0.6-1.1c0.8-0.6,1.6-0.9,2.5-0.9c1.3,0,2.2,0.6,2.2,1.6
		c0,0.7-0.5,1.4-1.2,2.1l-1.5,1.4h2.9v1.2h-4.7v-1l2.3-2.4C235.6,59.8,235.9,59.4,235.9,59.1z"/>
	<path d="M239.8,63c0,0.4-0.3,0.7-0.7,0.7c-0.4,0-0.7-0.3-0.7-0.7c0-0.4,0.3-0.7,0.7-0.7C239.5,62.3,239.8,62.5,239.8,63z"/>
	<path d="M243.4,58.3c-1.1,0-1.6,0.7-1.6,1.9c0.3-0.5,0.8-0.8,1.6-0.8c1.2,0,2,0.8,2,2c0,1.3-0.9,2.2-2.3,2.2
		c-1.6,0-2.6-1.2-2.6-3.1c0-2,1.1-3.3,2.8-3.3c0.7,0,1.4,0.2,2,0.5l-0.5,1C244.4,58.5,243.9,58.3,243.4,58.3z M242,61.5
		c0,0.5,0.3,1,1.1,1c0.6,0,1.1-0.4,1.1-1c0-0.6-0.4-1-1-1C242.4,60.5,242,61,242,61.5z"/>
	<path d="M249.3,57.3v6.3h-1.4v-5.1h-1.3v-1.2H249.3z"/>
	<path d="M262.8,60.6v3h-1.4V61c0-0.6-0.4-1-0.9-1c-0.7,0-1.1,0.5-1.1,1.2v2.4H258V61c0-0.6-0.4-1-0.9-1c-0.7,0-1.1,0.5-1.1,1.2v2.4
		h-1.4v-4.8h1.4v0.8c0.3-0.6,0.9-0.9,1.6-0.9c0.8,0,1.4,0.4,1.6,1.1c0.3-0.7,0.9-1.1,1.7-1.1C262.1,58.7,262.8,59.4,262.8,60.6z"/>
	<path d="M265.4,56.9v6.7H264v-6.7H265.4z"/>
	<path d="M277,57.3v1.2h-3.4v1.4h3V61h-3v1.4h3.5v1.2h-4.9v-6.3H277z"/>
	<path d="M283,57.3v1.2h-3.4v1.4h3V61h-3v1.4h3.5v1.2h-4.9v-6.3H283z"/>
	<path d="M286.4,58.5c-0.5,0-0.8,0.2-0.8,0.5c0,1.2,3.4,0.5,3.3,2.8c0,1.2-1.1,1.9-2.5,1.9c-1,0-2.1-0.4-2.8-1l0.6-1.2
		c0.6,0.6,1.6,0.9,2.2,0.9c0.6,0,0.9-0.2,0.9-0.6c0-1.2-3.4-0.5-3.4-2.7c0-1.1,1-1.9,2.4-1.9c0.9,0,1.8,0.3,2.4,0.7l-0.5,1.2
		C287.7,58.7,286.9,58.5,286.4,58.5z"/>
	<path d="M292.9,58.5c-1.1,0-1.9,0.8-1.9,1.9c0,1.1,0.8,1.9,1.9,1.9c0.6,0,1.2-0.3,1.6-0.7l0.8,0.9c-0.7,0.7-1.6,1.1-2.5,1.1
		c-1.9,0-3.3-1.4-3.3-3.2c0-1.8,1.4-3.2,3.4-3.2c0.9,0,1.9,0.4,2.5,1l-0.8,1C294.1,58.8,293.5,58.5,292.9,58.5z"/>
	<path d="M300.3,62.4h-2.9l-0.5,1.2h-1.5l2.7-6.3h1.5l2.7,6.3h-1.5L300.3,62.4z M299.8,61.2l-1-2.4l-1,2.4H299.8z"/>
	<path d="M304.4,57.3v5.1h2.7v1.2H303v-6.3H304.4z"/>
	<path d="M312.1,62.4h-2.9l-0.5,1.2h-1.5l2.7-6.3h1.5l2.7,6.3h-1.5L312.1,62.4z M311.7,61.2l-1-2.4l-1,2.4H311.7z"/>
	<path d="M315.9,60.3c0,0.4-0.3,0.7-0.7,0.7c-0.4,0-0.7-0.3-0.7-0.7c0-0.4,0.3-0.7,0.7-0.7C315.6,59.6,315.9,59.9,315.9,60.3z
		 M315.9,63c0,0.4-0.3,0.7-0.7,0.7c-0.4,0-0.7-0.3-0.7-0.7c0-0.4,0.3-0.7,0.7-0.7C315.6,62.3,315.9,62.5,315.9,63z"/>
	<path d="M322.5,57.3v6.3h-1.4v-5.1h-1.3v-1.2H322.5z"/>
	<path d="M328.3,56.3l-2.9,8.3h-1.2l2.9-8.3H328.3z"/>
	<path d="M331,59.1c0-0.4-0.3-0.6-0.9-0.6c-0.5,0-1.2,0.3-1.8,0.8l-0.6-1.1c0.8-0.6,1.6-0.9,2.5-0.9c1.3,0,2.2,0.6,2.2,1.6
		c0,0.7-0.5,1.4-1.2,2.1l-1.5,1.4h2.9v1.2H328v-1l2.3-2.4C330.8,59.8,331,59.4,331,59.1z"/>
	<path d="M334.9,63c0,0.2-0.1,0.4-0.2,0.6l-0.6,0.9h-0.7l0.4-0.9c-0.2-0.1-0.3-0.3-0.3-0.6c0-0.4,0.3-0.7,0.7-0.7
		C334.6,62.3,334.9,62.5,334.9,63z"/>
	<path d="M340.5,60.4c0,2.1-0.9,3.2-2.4,3.2c-1.6,0-2.4-1.1-2.4-3.2c0-2.1,0.9-3.2,2.4-3.2C339.6,57.3,340.5,58.4,340.5,60.4z
		 M337,60.4c0,1.5,0.3,2.2,1.1,2.2c0.7,0,1.1-0.7,1.1-2.2c0-1.5-0.3-2.2-1.1-2.2C337.3,58.3,337,58.9,337,60.4z"/>
	<path d="M346,60.4c0,2.1-0.9,3.2-2.4,3.2c-1.6,0-2.4-1.1-2.4-3.2c0-2.1,0.9-3.2,2.4-3.2C345.1,57.3,346,58.4,346,60.4z M342.5,60.4
		c0,1.5,0.3,2.2,1.1,2.2c0.7,0,1.1-0.7,1.1-2.2c0-1.5-0.3-2.2-1.1-2.2C342.8,58.3,342.5,58.9,342.5,60.4z"/>
	<path d="M351.6,60.4c0,2.1-0.9,3.2-2.4,3.2c-1.6,0-2.4-1.1-2.4-3.2c0-2.1,0.9-3.2,2.4-3.2C350.7,57.3,351.6,58.4,351.6,60.4z
		 M348.1,60.4c0,1.5,0.3,2.2,1.1,2.2c0.7,0,1.1-0.7,1.1-2.2c0-1.5-0.3-2.2-1.1-2.2C348.4,58.3,348.1,58.9,348.1,60.4z"/>
</g>
<g>
	<path d="M689.9,150.8v6.3h-1.6v-6.3H689.9z"/>
	<path d="M693.4,153.8v1H691v-1H693.4z"/>
	<path d="M699,155.1c0,1.2-1,2.1-2.6,2.1c-0.9,0-1.9-0.3-2.5-0.8l0.7-1.3c0.5,0.5,1.1,0.8,1.7,0.8c0.7,0,1.1-0.3,1.1-0.8
		c0-0.5-0.4-0.8-1.1-0.8h-1.1v-0.9l1.5-1.4h-2.4l0-1.3h4.4v1l-1.7,1.6l0.3,0C698.3,153.5,699,154.1,699,155.1z"/>
	<path d="M635.8,159.8v1.1l-3.3,3.9h3.4v1.3h-5.6V165l3.3-3.9h-3.2v-1.3H635.8z"/>
	<path d="M643.1,162.9c0,1.8-1.5,3.2-3.4,3.2c-2,0-3.4-1.4-3.4-3.2c0-1.8,1.5-3.2,3.4-3.2C641.7,159.7,643.1,161.1,643.1,162.9z
		 M638,162.9c0,1,0.8,1.8,1.7,1.8c0.9,0,1.7-0.8,1.7-1.8s-0.8-1.8-1.7-1.8S638,161.9,638,162.9z"/>
	<path d="M645.4,159.8l2.9,3.8v-3.8h1.5v6.3h-1.4l-2.9-3.8v3.8H644v-6.3H645.4z"/>
	<path d="M655.2,165h-2.7l-0.4,1.1h-1.7l2.7-6.3h1.7l2.6,6.3h-1.8L655.2,165z M654.8,163.7l-0.9-2.3l-0.9,2.3H654.8z"/>
	<path d="M666.8,162.9c0,1.9-1.4,3.2-3.4,3.2h-2.7v-6.3h2.7C665.4,159.8,666.8,161.1,666.8,162.9z M665.1,163c0-1.1-0.7-1.8-1.7-1.8
		h-1v3.6h1.1C664.4,164.8,665.1,164,665.1,163z"/>
	<path d="M672.6,159.8v1.3h-3.3v1.2h3v1.3l-3,0v1.2h3.4v1.3h-5.1v-6.3H672.6z"/>
	<path d="M680.5,162.9h1.4v2.5c-0.7,0.5-1.7,0.8-2.6,0.8c-1.9,0-3.4-1.4-3.4-3.2c0-1.8,1.5-3.2,3.5-3.2c0.9,0,1.9,0.4,2.6,0.9
		l-0.9,1.2c-0.5-0.4-1.1-0.7-1.7-0.7c-1,0-1.8,0.8-1.8,1.8c0,1,0.8,1.8,1.8,1.8c0.3,0,0.7-0.1,1.1-0.3V162.9z"/>
	<path d="M686.8,166.1l-0.9-1.7h0h-1.2v1.7H683v-6.3h2.8c1.7,0,2.6,0.8,2.6,2.2c0,1-0.4,1.7-1.1,2l1.3,2.1H686.8z M684.7,163h1.2
		c0.7,0,1.1-0.3,1.1-1c0-0.6-0.4-1-1.1-1h-1.2V163z"/>
	<path d="M693.8,165H691l-0.4,1.1h-1.7l2.7-6.3h1.7l2.6,6.3h-1.8L693.8,165z M693.3,163.7l-0.9-2.3l-0.9,2.3H693.3z"/>
	<path d="M698,159.8l2.9,3.8v-3.8h1.5v6.3h-1.4l-2.9-3.8v3.8h-1.5v-6.3H698z"/>
	<path d="M707.9,159.8v6.3h-1.6v-6.3H707.9z"/>
	<path d="M710.6,159.8l2.9,3.8v-3.8h1.5v6.3h-1.4l-2.9-3.8v3.8h-1.5v-6.3H710.6z"/>
	<path d="M722.3,162.9c0,1.9-1.4,3.2-3.4,3.2h-2.7v-6.3h2.7C721,159.8,722.3,161.1,722.3,162.9z M720.6,163c0-1.1-0.7-1.8-1.7-1.8
		h-1v3.6h1.1C720,164.8,720.6,164,720.6,163z"/>
	<path d="M726,164.8c0.7,0,1.2-0.5,1.2-1.3v-3.7h1.6v3.7c0,1.7-1.1,2.7-2.9,2.7c-1.8,0-2.9-1.1-2.9-2.7v-3.7h1.6v3.7
		C724.7,164.3,725.2,164.8,726,164.8z"/>
	<path d="M732.3,161.1c-0.4,0-0.7,0.1-0.7,0.4c0,1,3.3,0.5,3.3,2.7c0,1.3-1.1,1.9-2.5,1.9c-1.1,0-2.2-0.4-2.9-1l0.6-1.3
		c0.6,0.6,1.6,1,2.3,1c0.5,0,0.8-0.2,0.8-0.5c0-1.1-3.3-0.4-3.3-2.7c0-1.2,1-1.9,2.5-1.9c0.9,0,1.9,0.3,2.5,0.7l-0.6,1.3
		C733.6,161.4,732.8,161.1,732.3,161.1z"/>
	<path d="M740.6,159.8v1.4h-1.9v5h-1.6v-5h-1.9v-1.4H740.6z"/>
	<path d="M745.1,166.1l-0.9-1.7h0h-1.2v1.7h-1.6v-6.3h2.8c1.7,0,2.6,0.8,2.6,2.2c0,1-0.4,1.7-1.1,2l1.3,2.1H745.1z M742.9,163h1.2
		c0.7,0,1.1-0.3,1.1-1c0-0.6-0.4-1-1.1-1h-1.2V163z"/>
	<path d="M749.5,159.8v6.3h-1.6v-6.3H749.5z"/>
	<path d="M754.9,165h-2.7l-0.4,1.1H750l2.7-6.3h1.7l2.6,6.3h-1.8L754.9,165z M754.4,163.7l-0.9-2.3l-0.9,2.3H754.4z"/>
</g>
<g>
	<path d="M894.7,142.9c-0.3,0-0.5,0.1-0.5,0.3c0,0.8,2.6,0.4,2.6,2.1c0,1-0.9,1.5-2,1.5c-0.8,0-1.7-0.3-2.3-0.8l0.5-1
		c0.5,0.4,1.3,0.7,1.8,0.7c0.4,0,0.6-0.1,0.6-0.4c0-0.8-2.6-0.3-2.6-2.1c0-0.9,0.8-1.5,2-1.5c0.7,0,1.4,0.2,2,0.6l-0.5,1
		C895.7,143.2,895.1,142.9,894.7,142.9z"/>
	<path d="M901.3,142v1h-2.6v0.9h2.3v1l-2.3,0v0.9h2.7v1h-3.9V142H901.3z"/>
	<path d="M905.1,146.9l-0.7-1.4h0h-0.9v1.4h-1.3V142h2.2c1.3,0,2,0.6,2,1.7c0,0.7-0.3,1.3-0.9,1.6l1,1.6H905.1z M903.4,144.5h0.9
		c0.5,0,0.8-0.3,0.8-0.8c0-0.5-0.3-0.7-0.8-0.7h-0.9V144.5z"/>
	<path d="M908,142l1.2,3.6l1.2-3.6h1.3l-1.9,4.9h-1.3l-1.9-4.9H908z"/>
	<path d="M913.5,142v4.9h-1.3V142H913.5z"/>
	<path d="M916.8,143c-0.8,0-1.3,0.6-1.3,1.4c0,0.8,0.6,1.4,1.3,1.4c0.4,0,0.9-0.2,1.2-0.6l0.7,0.8c-0.5,0.6-1.3,0.9-2,0.9
		c-1.5,0-2.6-1.1-2.6-2.5c0-1.4,1.1-2.5,2.6-2.5c0.7,0,1.5,0.3,2,0.8l-0.7,0.9C917.7,143.3,917.3,143,916.8,143z"/>
	<path d="M920.6,142v4.9h-1.3V142H920.6z"/>
	<path d="M926.6,144.4c0,1.4-1.1,2.5-2.7,2.5s-2.7-1.1-2.7-2.5c0-1.4,1.1-2.5,2.7-2.5S926.6,143,926.6,144.4z M922.6,144.4
		c0,0.8,0.6,1.4,1.4,1.4c0.7,0,1.3-0.6,1.3-1.4c0-0.8-0.6-1.4-1.3-1.4S922.6,143.6,922.6,144.4z"/>
	<path d="M929,142.9c-0.3,0-0.5,0.1-0.5,0.3c0,0.8,2.6,0.4,2.6,2.1c0,1-0.9,1.5-2,1.5c-0.8,0-1.7-0.3-2.3-0.8l0.5-1
		c0.5,0.4,1.3,0.7,1.8,0.7c0.4,0,0.6-0.1,0.6-0.4c0-0.8-2.6-0.3-2.6-2.1c0-0.9,0.8-1.5,2-1.5c0.7,0,1.5,0.2,2,0.6l-0.5,1
		C930.1,143.2,929.4,142.9,929,142.9z"/>
	<path d="M877.9,152c-0.8,0-1.3,0.6-1.3,1.4c0,0.8,0.6,1.4,1.3,1.4c0.4,0,0.9-0.2,1.2-0.6l0.7,0.8c-0.5,0.6-1.3,0.9-2,0.9
		c-1.5,0-2.6-1.1-2.6-2.5c0-1.4,1.1-2.5,2.6-2.5c0.7,0,1.5,0.3,2,0.8l-0.7,0.9C878.8,152.3,878.4,152,877.9,152z"/>
	<path d="M885.3,153.4c0,1.4-1.1,2.5-2.7,2.5s-2.7-1.1-2.7-2.5c0-1.4,1.1-2.5,2.7-2.5S885.3,152,885.3,153.4z M881.4,153.4
		c0,0.8,0.6,1.4,1.4,1.4c0.7,0,1.3-0.6,1.3-1.4c0-0.8-0.6-1.4-1.3-1.4S881.4,152.6,881.4,153.4z"/>
	<path d="M887.4,151l1.3,2.9l1.3-2.9h1.4v4.9h-1.1l0-3.1l-1.1,2.6h-0.8l-1.1-2.6v3.1H886V151H887.4z"/>
	<path d="M896.5,152.7c0,1.2-0.7,1.8-2,1.8h-0.9v1.4h-1.3V151h2.2C895.8,151,896.5,151.6,896.5,152.7z M895.3,152.7
		c0-0.5-0.3-0.7-0.8-0.7h-0.8v1.5h0.8C895,153.5,895.3,153.2,895.3,152.7z"/>
	<path d="M898.4,151v3.8h2.1v1.1h-3.4V151H898.4z"/>
	<path d="M904.9,151v1h-2.6v0.9h2.3v1l-2.3,0v0.9h2.7v1H901V151H904.9z"/>
	<path d="M907.2,151l1.3,2.9l1.3-2.9h1.4v4.9H910l0-3.1l-1.1,2.6H908l-1.1-2.6v3.1h-1.1V151H907.2z"/>
	<path d="M916,151v1h-2.6v0.9h2.3v1l-2.3,0v0.9h2.7v1h-3.9V151H916z"/>
	<path d="M918,151l2.2,3v-3h1.2v4.9h-1.1l-2.2-2.9v2.9h-1.2V151H918z"/>
	<path d="M926.1,151v1.1h-1.5v3.9h-1.3V152h-1.5V151H926.1z"/>
	<path d="M929.4,155h-2.1l-0.3,0.9h-1.3l2.1-4.9h1.3l2.1,4.9h-1.4L929.4,155z M929,154l-0.7-1.8l-0.7,1.8H929z"/>
	<path d="M934.5,155.9l-0.7-1.4h0h-0.9v1.4h-1.3V151h2.2c1.3,0,2,0.6,2,1.7c0,0.7-0.3,1.3-0.9,1.6l1,1.6H934.5z M932.8,153.5h0.9
		c0.5,0,0.8-0.3,0.8-0.8c0-0.5-0.3-0.7-0.8-0.7h-0.9V153.5z"/>
	<path d="M937.9,151v4.9h-1.3V151H937.9z"/>
	<path d="M943.8,153.4c0,1.4-1.1,2.5-2.7,2.5s-2.7-1.1-2.7-2.5c0-1.4,1.1-2.5,2.7-2.5S943.8,152,943.8,153.4z M939.8,153.4
		c0,0.8,0.6,1.4,1.4,1.4c0.7,0,1.3-0.6,1.3-1.4c0-0.8-0.6-1.4-1.3-1.4S939.8,152.6,939.8,153.4z"/>
	<path d="M946.3,151.9c-0.3,0-0.5,0.1-0.5,0.3c0,0.8,2.6,0.4,2.6,2.1c0,1-0.9,1.5-2,1.5c-0.8,0-1.7-0.3-2.3-0.8l0.5-1
		c0.5,0.4,1.3,0.7,1.8,0.7c0.4,0,0.6-0.1,0.6-0.4c0-0.8-2.6-0.3-2.6-2.1c0-0.9,0.8-1.5,2-1.5c0.7,0,1.5,0.2,2,0.6l-0.5,1
		C947.3,152.2,946.7,151.9,946.3,151.9z"/>
</g>
<g>
	<path class="st0" d="M151.6,468.2H57.8V425h90.5l3.3,3.3V468.2z M58.8,467.2h91.8v-38.5l-2.7-2.7H58.8V467.2z"/>
</g>
<g>
	<path class="st0" d="M153,376.3H60.2v-68h95.9v65.2L153,376.3z M61.2,375.3h91.5l2.4-2.2v-63.8H61.2V375.3z"/>
</g>
<g>
	<path class="st0" d="M156.1,309.3H60.4L57.8,73h98L156.1,309.3z M61.4,308.3h93.7L154.8,74h-96L61.4,308.3z"/>
</g>
<g>
	<path class="st0" d="M931.3,238.6h-58.9l-3.3-3.2V73h85.4l0,80.4l-19.8,82.1L931.3,238.6z M872.8,237.6h58.1l2.9-2.6l19.7-81.8V74
		h-83.4v161L872.8,237.6z"/>
</g>
<g>
	<path class="st0" d="M442.6,376.3H181.3l-3.1-2.8v-73.4l3.1-3h261.3l3.2,3.5v0.2l-0.1,72.2L442.6,376.3z M181.7,375.3h260.5
		l2.6-2.7l0.1-71.6l-2.7-2.9H181.8l-2.5,2.5V373L181.7,375.3z"/>
</g>
<g>
	<rect x="326.3" y="297.6" class="st0" width="1" height="78.2"/>
</g>
<g>
	<path class="st0" d="M833.7,376.4H471.6l-2.7-3.1v-73.1l3.1-3.2h360.3l4.5,3.1v72.9L833.7,376.4z M472.1,375.4h361.2l2.4-2.7v-72
		l-3.8-2.6H472.4l-2.5,2.6v72.3L472.1,375.4z"/>
</g>
<g>
	<rect x="528.3" y="297.6" class="st0" width="1" height="78.4"/>
</g>
<g>
	<polygon class="st0" points="584.5,375.9 583.5,375.9 583.5,346.8 727.2,346.8 727.2,336.2 835.6,336.2 835.6,337.2 728.2,337.2 
		728.2,347.8 584.5,347.8 	"/>
</g>
<g>
	<path class="st0" d="M443,512.8H181l-2.4-3.1v-81.9l3.3-2.8h261l2.5,2.9v81.8L443,512.8z M181.5,511.8h261.1l1.9-2.4v-81.1l-2-2.3
		H182.3l-2.7,2.3v81.1L181.5,511.8z"/>
</g>
<g>
	<rect x="179.1" y="468.4" class="st0" width="265.8" height="1"/>
</g>
<g>
	<path class="st0" d="M442.9,570.3h-262l-2.3-2.7v-26l2.9-3.1h260.9l3,3.1v26.1L442.9,570.3z M181.3,569.3h261.1l1.9-2.1V542
		l-2.4-2.5H181.9l-2.3,2.5v25.3L181.3,569.3z"/>
</g>
<g>
	<path class="st0" d="M640.5,570.8H472l-3.2-3.2v-25.8l3.2-3.2l168.5,0l3.2,3.2v25.7L640.5,570.8z M472.4,569.8h167.7l2.6-2.7v-24.9
		l-2.6-2.6l-167.6,0l-2.6,2.6v25L472.4,569.8z"/>
</g>
<g>
	<path class="st0" d="M832.9,570.8H661.1l-3.2-3.2v-25.8l3.2-3.2l171.7,0l3.3,3.2v25.7L832.9,570.8z M661.5,569.8h170.9l2.6-2.7
		v-24.9l-2.7-2.6l-170.9,0l-2.6,2.6v25L661.5,569.8z"/>
</g>
<g>
	<path class="st0" d="M640.7,512.8H472.7l-3.8-3.2v-81.5l3.8-3.1h168l3.2,3.1v81.5L640.7,512.8z M473.1,511.8h167.2l2.7-2.7v-80.6
		l-2.6-2.5H473.1l-3.2,2.5v80.6L473.1,511.8z"/>
</g>
<g>
	<path class="st0" d="M832.8,512.7h-171l-3.9-3.2V428l3.9-3h171l3.3,3.1v81.5L832.8,512.7z M662.1,511.7h170.3l2.7-2.7v-80.6
		l-2.7-2.5H662.1l-3.3,2.5V509L662.1,511.7z"/>
</g>
<g>
	<polygon class="st0" points="556.7,469.4 469.4,469.4 469.4,468.4 555.7,468.4 555.7,425.5 556.7,425.5 	"/>
</g>
<g>
	<path class="st0" d="M862.9,570.8h-0.2l-3.1-3.1V300l3.7-2.9h67.9l3.6,2.9l0,0.2L955,384v0.1l0.5,151.4c0,0.4-3.8,30.6-35.5,35.4
		L862.9,570.8z M863.1,569.8h56.8c31-4.6,34.6-34.1,34.6-34.4L954,384.1l-20.2-83.6l-3.1-2.5h-67.2l-3,2.4v266.8L863.1,569.8z"/>
</g>
<g>
	<path class="st0" d="M974.3,587.1H53.9V73.3h920.3V587.1z M54.4,586.6h919.3V73.8H54.4V586.6z"/>
</g>
</svg>
